<?xml version="1.0" encoding="utf-8"?>
<!-- Generator: Adobe Illustrator 13.0.2, SVG Export Plug-In . SVG Version: 6.00 Build 14948)  -->
<!DOCTYPE svg PUBLIC "-//W3C//DTD SVG 1.1//EN" "http://www.w3.org/Graphics/SVG/1.1/DTD/svg11.dtd">
<svg xmlns="http://www.w3.org/2000/svg" xmlns:xlink="http://www.w3.org/1999/xlink" xmlns:svg="http://www.w3.org/2000/svg" xmlns:dc="http://purl.org/dc/elements/1.1/" xmlns:cc="http://web.resource.org/cc/" xmlns:rdf="http://www.w3.org/1999/02/22-rdf-syntax-ns#" version="1.1" id="Layer_1" x="0px" y="0px" width="309.292px" height="732.12px" viewBox="0 0 309.292 732.12" enable-background="new 0 0 309.292 732.12" xml:space="preserve">
<g>
	<g>
		<radialGradient id="SVGID_1_" cx="80.0322" cy="49.2427" r="363.2801" gradientUnits="userSpaceOnUse">
			<stop offset="0" style="stop-color:#FFFFFF"/>
			<stop offset="1" style="stop-color:#808080"/>
		</radialGradient>
		<path fill="url(#SVGID_1_)" d="M173.045,536.734c0-5.32-4.471-7.216-5.683-11.69c-3.946-1.031-3.779-6.533-8.075-7.223    c-1.032-1.714-3.439-2.056-5.504-2.568c-5.674-1.56-12.381-0.87-18.225-2.247c-2.232,0.354-3.952-2.064-6.195-0.847    c-1.191-0.187-2.061,0.336-3.093,0.847v3.102H126.1c0,2.568-1.195,6.536,1.032,8.076c4.122-0.514,7.56,0.86,11.531,0.351    c1.711,1.031,3.954,0,5.662,0.856c2.414,0.175,5.154-0.347,7.401,0.346c4.121-0.861,4.462,3.264,8.246,2.918    c0.87,1.202,2.236,1.557,2.406,3.105c0.346,22.692,0.176,45.735,1.728,68.094c0.517,5.498-0.182,11.52,0.688,17.026v52.092    c-2.415,4.305-6.023,6.363-8.776,9.799c-1.715,1.215-2.922,3.101-4.462,4.641c-2.93,2.76-5.329,6.89-8.422,9.293    c-0.517,0.17-0.175,0.512-0.346,0.86c-3.275,3.443-6.71,6.365-9.803,10.15c-2.593,1.202-3.785,4.12-7.228,4.12    c-7.047,1.72-12.202-3.264-18.229-4.982c-4.992-1.373-9.458-4.125-14.616-4.984c-1.89-1.213-4.471-0.698-6.189-2.072h-1.151    l-1.252,5.566c0.172,2.831,3.818,2.622,4.81,4.753c3.266,1.72,6.199,3.956,9.111,5.847c1.207,1.716,3.101,2.414,4.995,3.275    c0.683,1.2,1.541,3.435,3.251,3.78c0.036,0.058,0.08,0.11,0.12,0.165l29.254,9.837c2.328-1.711,4.723-3.327,7.605-4.332    c2.231,0,2.759-3.096,5.496-2.234c1.561-1.886,4.82-1.721,5.853-3.952c2.756-0.342,3.955-3.264,6.369-4.475    c1.54-1.893,4.471,0.179,6.007-1.723c2.76,0.353,3.61-2.232,6.199-2.232c2.061-2.236,4.812-5.154,7.909-6.527    c-0.521-3.439,4.292-1.036,4.642-3.785c2.574-1.891,4.98-3.782,7.061-6.023c1.527-3.612,3.077-7.906,1.874-12.212    c-0.175-2.062-1.528-4.127-0.517-6.188c-0.346-2.751-1.887-4.812-2.747-7.217c0.86-0.343,0.86-1.559,0.17-2.062    c-1.032-0.517-1.374-1.55-2.065-2.405c-1.71-3.96,0.691-8.261-0.682-12.385c1.203-1.036-0.857-4.309,1.887-3.952    c0.69-0.865,1.377-1.387,1.031-2.589c-0.857-1.021-2.731,0.171-3.268-1.544c0-2.405-2.232-5.503,0.35-7.216    c1.031-1.209,0-2.756-0.857-3.454c-1.895-1.531-0.861-4.467-3.443-5.665c0.857-1.206,0-3.272,1.378-4.127    c0.171-2.234,0.171-4.812-1.548-5.84c0.346-1.553-0.346-3.789,1.377-4.138c0.342-1.2,0.512-3.264-1.031-3.43    c0.512-1.041-1.549-0.697-0.863-2.07c1.375,0,0.342-1.716,1.721-1.716c-0.688-2.413,1.207-4.133,0-6.189    c0.174-1.385,0.857-2.239,1.719-3.102h1.549c0.682,1.37-2.41,3.776,0.512,4.304c1.203,0.517,1.032-1.038,1.549-1.549    c-0.857-3.44,0.175-7.907-0.857-11.522c-2.581,1.203-1.553,5.155-3.785,6.357c-1.889,0.692-3.434,4.826-6.015,2.066h-0.683    c-0.688-1.374,0.854-4.469-1.378-4.638c0-1.205-2.581-1.725-1.724-3.624c1.549-1.02-0.346-2.052,0.857-3.254    c-1.032-0.694,0-1.374,0-2.232c0.179-0.699,1.211-0.353,0.866-1.203c2.231-1.04,7.044,1.545,7.39-2.243    c1.032-0.337,1.032-2.052,0.345-2.751c-2.065-1.549,0.862-3.096-1.548-4.122c-0.518-2.418,2.58-4.471,0.346-6.541    c-1.549-1.368-2.748-2.401-2.923-4.812c-0.347-1.38-0.517-2.922-1.378-3.953c-1.541-1.203,0.69-4.123-1.887-4.643    C176.479,546.883,176.309,541.21,173.045,536.734z"/>
		<radialGradient id="SVGID_2_" cx="80.0317" cy="49.2466" r="363.2804" gradientUnits="userSpaceOnUse">
			<stop offset="0" style="stop-color:#FFFFFF"/>
			<stop offset="1" style="stop-color:#808080"/>
		</radialGradient>
		<path fill="url(#SVGID_2_)" d="M61.099,50.452c0.514,2.235,2.406,4.638,1.717,7.044c1.041,0.861,2.065,1.382,2.406,2.752    c-0.341,0.516-1.888,0.687-1.022,1.719c2.579,0.516,6.188,1.044,8.424-0.346c2.919-0.341,5.68-0.858,8.084-2.061    c1.205-1.204,3.952-1.032,4.125-3.097c2.406,0.178,3.951-2.744,6.359-1.041c2.233-1.016,3.095-3.081,5.854-3.081    c2.235-3.605,6.531,0.862,9.12-2.414c4.292,1.549,8.417-0.679,11.34-2.752l0.857-1.374c2.577-0.512,2.923-3.435,5.678-4.296    c-0.174-3.609,3.26-4.304,3.788-7.386c0.858-0.175,0.858-1.561,2.22-1.04c0.691,2.24-1.191,3.784-1.191,6.194    c-0.687,1.545-1.386,3.264-3.276,3.264c-0.857,2.239-2.748,3.094-2.918,5.329l-3.272,3.1c1.029,1.891,3.784,2.236,4.134,4.634    c-0.35,1.382-0.862,2.073-2.068,2.585c-1.72,1.374-3.606,3.61-6.703,2.922c-0.687,0.858-0.341,2.073-1.37,2.577h-2.073    c0.171,2.578,3.955,1.374,5.67,2.578c6.023,1.556,12.38,2.072,18.225,3.609c6.711,1.041,13.417,2.588,20.298,3.447    c2.927,0.345,5.336,1.89,8.418,1.89c0.869-0.171,2.072-0.171,2.406-1.028c-0.505-4.649,0.86-8.43,0.519-13.072    c0.513-1.203,0.342-2.922,1.554-3.613c-0.866-2.406-4.297-2.073-5.679-3.776c-2.402-0.516-2.752-2.922-4.121-4.3    c-0.349-2.069,1.369-2.755,2.068-4.308c0.342-6.694,3.776-12.381,6.52-17.535c2.76-3.435,4.302-7.39,7.577-10.149    c-1.895-0.854-5.159,0.869-5.679-2.061c-1.728-0.513,0.691-1.72-0.687-2.577c-3.609,1.544-7.39,3.442-9.116,6.881    c-2.918,3.093-5.504,7.389-6.874,12.026c-2.235,5.337-2.235,12.043-6.532,15.653c-2.922,2.069-6.198,4.467-10.844,3.447    c-2.053-1.89-4.988-3.276-4.646-7.056c1.732-2.406,1.732-5.845,3.447-8.421c1.024-2.069,0.854-4.642,2.41-6.366    c2.228-6.706,5.853-12.551,9.978-17.368c0.342-1.377,1.882-1.377,2.053-3.093c-0.508-0.345-1.37-0.174-1.882-0.174    c-0.517-1.033,1.711-2.065-0.171-2.406c-2.93,0.516-6.027,1.89-8.604,3.438c-2.76,1.544-4.297,4.296-6.369,6.881    c-6.694,8.592-6.349,21.14-13.401,29.229c-2.248,0.857-3.955,2.577-6.718,2.406c-2.231,0.171-4.292,0-5.667-1.374    c-0.691-1.203-1.891-2.581-1.374-4.301c3.435-3.95,4.296-9.966,7.39-14.616c3.613-8.942,8.426-16.339,14.274-22.351    c-3.955-2.927-7.563,0.687-10.832,2.235c-2.41,2.065-4.812,3.776-6.194,7.219c-4.125,6.881-7.39,14.788-9.978,22.522    c-1.707,4.991-4.638,7.751-8.936,9.974c-2.412,0-5.68,0.175-6.54-1.886c-1.193-0.858-0.333-2.581-1.023-3.613    c2.58-1.716,2.923-5.675,4.815-8.255c0-2.227,1.891-3.609,2.061-5.674c2.894-6.546,5.928-13.763,10.29-18.796    c-2.037-0.136-4.099,0.238-5.884,0.765c-0.433,0.571-1.337,0.623-1.818,1.351c-6.711,7.739-11.696,18.401-15.142,28.895    l-3.094,4.816c-1.89,1.195-3.263,3.789-6.532,2.744c-2.068-1.203-2.92-3.26-2.92-5.845c3.476-5.54,5.37-12.511,8.323-18.544    c-4.455,1.808-7.206,5.725-8.029,7.03c-1.262,3.438-2.468,6.733-3.225,10.481C59.896,43.912,61.794,47.005,61.099,50.452z"/>
		<radialGradient id="SVGID_3_" cx="80.0322" cy="49.2461" r="363.2795" gradientUnits="userSpaceOnUse">
			<stop offset="0" style="stop-color:#FFFFFF"/>
			<stop offset="1" style="stop-color:#808080"/>
		</radialGradient>
		<path fill="url(#SVGID_3_)" d="M46.654,201.95c1.211,0.171,1.211,1.703,1.557,2.744c2.404,0,2.061-2.231,3.093-3.78    c0-0.695,1.031-0.516,1.547-0.345c1.717-0.691,3.778-0.87,5.672-1.382c-0.516-2.398,2.577-1.374,2.406-3.78    c0.685-1.549,2.234-1.373,3.789-1.549c-0.517-2.056-2.923-1.544-2.923-3.268c-2.414-0.683-2.241-3.775-4.304-4.816l-0.516-3.431    c-1.03-0.695-1.201-2.414-2.233-2.927l-0.689,1.375c1.549,1.203,1.032,4.133,3.093,4.983l0.516,3.102    c0.861,0.17-0.171,1.715,0.861,1.894c0,2.231,0.858,5.849-1.548,6.71c-6.194-1.902-14.446-1.557-20.975-1.04v0.698    c2.234,0.504,4.123,1.711,6.529,1.878C44.761,199.015,44.761,201.259,46.654,201.95z"/>
		<radialGradient id="SVGID_4_" cx="80.0337" cy="49.2202" r="363.3496" gradientUnits="userSpaceOnUse">
			<stop offset="0" style="stop-color:#FFFFFF"/>
			<stop offset="1" style="stop-color:#808080"/>
		</radialGradient>
		<path fill="url(#SVGID_4_)" d="M72.279,184.578v0.345l2.063,0.171c0.687-0.346,1.375-0.862,1.032-2.065    C73.825,182.858,72.625,183.2,72.279,184.578z"/>
		<radialGradient id="SVGID_5_" cx="80.0327" cy="49.2432" r="363.2849" gradientUnits="userSpaceOnUse">
			<stop offset="0" style="stop-color:#FFFFFF"/>
			<stop offset="1" style="stop-color:#808080"/>
		</radialGradient>
		<path fill="url(#SVGID_5_)" d="M33.42,225.337c2.75,1.711,7.563,1.366,8.249,4.975c1.72,0.87,4.307,1.204,6.025,0.517    c1.547-1.02,3.778,0,5.156-0.861c2.922-0.159,6.014,0.345,8.763-0.508c2.244-0.171,3.104,1.882,4.477,2.915    c-0.341,1.386-0.868,2.243-1.719,3.271c-0.341,1.211,0.681,1.719,0.852,2.581c2.933-0.862,4.479,1.374,7.056,1.203    c2.406,1.378,5.501,0.687,7.916,2.065c3.772-0.345,7.211,0.516,10.828,0.854c4.646,0.691,9.287,1.723,14.1,2.235    c5.336,1.033,11.344,0.35,16.335,2.235c3.101-0.683,6.015,1.557,8.592-0.341c-0.687-2.751,1.204-4.296,1.204-6.707    c0.17-1.033,1.561-1.033,1.215-2.406c-2.589-1.719-5.682-2.402-9.292-2.062c-11.522-2.406-23.383-3.787-35.431-5.166    c-4.802,0-9.442-0.678-14.265-1.02c-1.374-0.183-2.235-1.041-2.404-2.414c1.031-3.442,1.547-7.048,2.234-10.657h0.17v-2.756    c-0.687-0.35,0-2.228-1.546-1.549c-0.689,2.061-2.063,3.962-2.063,6.187c-1.372,2.418-0.862,5.682-2.063,8.088    c-3.953,0.687-7.568-0.342-11.182-0.679c-2.577,1.882-5.668,0-8.417,0c-2.752-0.353-5.51-0.695-8.259-0.695    c-2.063-0.691-4.814-0.691-6.703,0C33.076,224.984,33.592,225.155,33.42,225.337z"/>
		<radialGradient id="SVGID_6_" cx="80.0332" cy="49.2441" r="363.2869" gradientUnits="userSpaceOnUse">
			<stop offset="0" style="stop-color:#FFFFFF"/>
			<stop offset="1" style="stop-color:#808080"/>
		</radialGradient>
		<path fill="url(#SVGID_6_)" d="M45.458,170.129c0.852,2.414,4.812,1.723,4.812,4.642c1.892,0.691,2.579,2.756,4.469,3.792    c1.546-0.695,0.343-2.244,1.032-3.447c-0.516-0.17-0.689-0.862-0.689-1.374c0.689-0.687,1.374-1.719,1.89-2.243l0.171-1.37    c2.064-0.854,1.207-4.122,3.097-4.809c0.171-2.24,3.093-2.931,2.575-5.166h-0.506c-3.102,2.581-5.508,5.853-9.806,6.702    c-2.405,2.24-6.195,0.691-9.29,1.215l-0.688,0.512C42.874,169.958,44.42,169.616,45.458,170.129z"/>
		<radialGradient id="SVGID_7_" cx="80.0322" cy="49.2456" r="363.2799" gradientUnits="userSpaceOnUse">
			<stop offset="0" style="stop-color:#FFFFFF"/>
			<stop offset="1" style="stop-color:#808080"/>
		</radialGradient>
		<path fill="url(#SVGID_7_)" d="M33.249,256.285c0,2.915,3.435,2.061,4.296,4.122c2.922,0.862,3.438-1.378,5.5-2.061    c5.507-0.349,12.039-1.21,17.032,1.375c0,1.889,1.197,4.121-0.181,5.853c-0.343,1.033,0.86,1.203,1.717,1.033    c3.268,2.565,8.605,3.434,13.415,4.125c0.859,1.199,2.406-0.691,3.103,0.857c1.719-0.857,2.921,1.028,4.64,0.171    c5.491,1.191,11.688,2.062,17.709,2.577c1.711-0.171,3.613,0,5.158,0.516c2.922-0.516,5.162,1.032,7.917,0.341    c2.395,1.549,6.354,0.875,9.451,0.691c0-3.097-0.171-6.536,1.719-8.779c-0.683-2.744-4.304-2.061-6.361-3.264    c-1.203,0-2.243,0.171-3.097-0.512c-4.133,0.858-6.877-1.37-10.662-1.199c-0.858-1.207-2.239,0.508-3.101-0.861    c-6.53-0.346-12.204-1.548-18.733-2.24c-5.166-1.544-12.21,0.691-16.853-1.894c-0.867-1.2,0.688-1.712,0.171-3.09    c0.173-1.203,0.346-2.402,0.859-3.271c0.165-3.26,1.206-6.532,0.86-9.625c-0.514-0.687-0.86-1.72-1.891-1.378    c0.171,2.064-1.202,3.61-1.889,4.983c-0.346,2.589-1.213,5.157-0.868,7.743H62.99v0.691c-1.716,4.979-7.733,1.033-11.343,1.033    c-2.064,2.064-4.298-0.346-6.886,0.503c-1.717-0.503-3.436-0.849-5.156-1.195c-3.436,0.516-6.186-1.203-9.46-0.341    C30.671,254.907,32.389,255.078,33.249,256.285z"/>
		<radialGradient id="SVGID_8_" cx="80.0327" cy="49.2417" r="363.2843" gradientUnits="userSpaceOnUse">
			<stop offset="0" style="stop-color:#FFFFFF"/>
			<stop offset="1" style="stop-color:#808080"/>
		</radialGradient>
		<path fill="url(#SVGID_8_)" d="M81.215,359.459c-0.506-0.861-0.848-2.072-1.545-2.585c-0.343-2.06-1.89-3.093-1.89-5.165    c-0.346-0.68-0.517-2.049-2.063-1.537v1.537c-1.892,4.475-3.266-2.398-6.187-1.537c-0.345,7.564,3.435,11.856,7.561,16.153    c2.93,0,0.343-2.911,1.384-4.639l1.375,1.387c-0.699,2.909,2.579,1.02,3.771,1.71l-0.171-1.369    C81.914,362.545,82.084,360.826,81.215,359.459z"/>
		<radialGradient id="SVGID_9_" cx="80.0361" cy="49.2563" r="363.2662" gradientUnits="userSpaceOnUse">
			<stop offset="0" style="stop-color:#FFFFFF"/>
			<stop offset="1" style="stop-color:#808080"/>
		</radialGradient>
		<path fill="url(#SVGID_9_)" d="M27.91,318.188c0.516-0.691,0.516-2.065,1.892-2.065c0.181-0.866-0.508-1.382-0.163-2.239    c-1.891-1.024-1.729-3.264-2.407-5.321h-0.345c0.171-1.557-1.039-1.902-0.695-3.447c0-1.032,0-2.577-1.546-1.894    c0.694,2.414,0.351,5.849,0.18,8.596h-0.18c-0.515,3.098,0.694,5.166,0.523,7.91c0.507,0.17,0.171,0.865,0.336,1.21h1.553    C27.404,320.078,28.255,319.554,27.91,318.188z"/>
		<radialGradient id="SVGID_10_" cx="80.0327" cy="49.2476" r="363.2769" gradientUnits="userSpaceOnUse">
			<stop offset="0" style="stop-color:#FFFFFF"/>
			<stop offset="1" style="stop-color:#808080"/>
		</radialGradient>
		<path fill="url(#SVGID_10_)" d="M53.709,348.969c-0.172,0-0.514,0-0.689-0.17c-1.032-1.902-3.96-2.073-5.499-3.964    c-1.038,6.366,2.061,10.494,4.812,14.624c1.203,1.024,2.062,3.26,3.78,2.745c0.172-1.378-1.203-2.233-0.342-3.265    c2.579,0.861,2.234,4.304,5.156,4.304c0.346-1.215-0.687-1.386-0.687-2.585C57.319,357.564,56.114,352.924,53.709,348.969z"/>
		<radialGradient id="SVGID_11_" cx="80.0327" cy="49.2446" r="363.2844" gradientUnits="userSpaceOnUse">
			<stop offset="0" style="stop-color:#FFFFFF"/>
			<stop offset="1" style="stop-color:#808080"/>
		</radialGradient>
		<path fill="url(#SVGID_11_)" d="M51.817,144.68c2.406-0.179,2.406,2.748,4.985,1.898c5.164-1.044,10.836-1.215,15.648-3.101    c2.923-1.719,6.024,0.683,9.288-0.346c0.345,1.37,1.711-0.341,2.228,0.688c2.757,1.893,4.818,4.812,4.125,8.604    c1.726,1.886,4.994,0.679,6.883,1.545c6.022-1.381,10.148,2.406,15.826,1.719c2.057,0.346,4.125,0.857,6.008,1.208    c6.198,0,12.051,1.374,18.054,2.056l0.525,0.346c3.605-0.691,6.19,1.544,9.279,1.374v0.171c1.902,0.175,4.471,0.516,6.198-0.504    c0.517-2.76,0.862-5.857,1.882-8.43c-0.679-1.207-2.569-1.891-4.292-2.248c-2.402-0.687-5.321-0.341-7.739-1.028    c-2.747-0.504-5.507-0.675-7.901-1.715c-3.614-0.512-7.405-0.512-10.669-1.553c-2.922-0.341-6.194-1.032-8.946-1.032    c-2.74-0.512-5.84,0.17-8.25-0.683c-4.125,0.342-7.568-1.374-11.694-1.028c-1.709,0-3.953,0.342-5.508-1.033    c0.346-3.78,1.727-7.23,2.071-10.84h0.174v-3.78l-1.55-0.17c-1.201,1.719-1.201,3.951-1.718,6.016    c-0.857,2.402-1.03,5.166-2.063,7.397c-4.639,0.346-9.803-1.716-14.099,0.17c-2.236-0.687-4.983-0.341-7.572-0.341    c-4.297-0.861-8.766-0.345-13.579-0.516l-1.717,0.857C48.716,142.445,51.132,142.445,51.817,144.68z"/>
		<radialGradient id="SVGID_12_" cx="80.0332" cy="49.2461" r="363.2788" gradientUnits="userSpaceOnUse">
			<stop offset="0" style="stop-color:#FFFFFF"/>
			<stop offset="1" style="stop-color:#808080"/>
		</radialGradient>
		<path fill="url(#SVGID_12_)" d="M51.989,113.562c2.751-0.349,1.892,2.915,3.438,3.784c1.376,2.919,6.187,1.204,9.29,1.374    c0.681-1.203,2.579-1.032,3.608-1.032v0.171l2.236,0.175c2.233-0.517,3.609-2.752,6.53-2.248    c2.759-2.053,7.046-1.032,10.846-1.537l0.504,0.504c2.238,0,2.751,1.549,4.644,2.064c0.341,1.215,2.061,3.276,0.168,4.133    c0,1.207,1.034,0.688,1.376,1.72c2.417,0.342,5.164,0.861,6.875,2.402c4.312,0.35,8.608,1.894,12.909,2.065    c1.365-0.512,2.223,0.175,3.609,0c7.044,0.87,13.06,1.72,20.12,2.578c1.886,0.345,3.605,0.69,5.495,1.203    c4.296-0.342,8.259,2.418,12.38,0.528c0.351-1.04-0.512-1.04-0.341-2.073c0.17-0.346-0.341-1.195,0.341-1.195    c-0.341-2.244,0.529-3.958,0.87-6.02c-0.519-0.69-1.552-0.35-1.901-1.032c-1.541,0.513-1.541-1.207-3.089-0.528    c-3.271-1.366-7.743-0.679-10.836-2.219c-3.78,0-7.048-1.561-10.84-1.561c-1.878-0.342-3.435-1.203-5.496-0.858    c-2.752-1.541-5.841-0.174-8.775-1.207c-5.15-0.85-11.002,0-15.982-1.021c-1.898,0-4.64,0.171-6.027-1.041    c-0.687-1.544,0.174-3.268,0.689-4.637c0-0.687-0.86-1.719,0.345-1.891c-0.174-2.235,0.693-4.133,0.354-6.361    c0-0.857-0.87-0.69-1.388-0.69c-1.545,1.894-1.201,4.3-1.88,6.532c-0.516,2.239-0.516,3.78-1.553,5.674    c-3.611,1.373-6.887-0.691-10.313-0.691c-7.4,1.723-13.931,0.349-21.672,0.52l-0.687,0.342c-2.579-0.513-3.784,0.861-6.188,0.69    C51.647,112.521,51.303,113.212,51.989,113.562z"/>
		<radialGradient id="SVGID_13_" cx="80.0322" cy="49.2378" r="363.3072" gradientUnits="userSpaceOnUse">
			<stop offset="0" style="stop-color:#FFFFFF"/>
			<stop offset="1" style="stop-color:#808080"/>
		</radialGradient>
		<path fill="url(#SVGID_13_)" d="M78.475,168.584c0-1.036,0.163-2.232-0.171-3.264l-3.276-0.171v0.857    C76.067,166.686,76.748,168.755,78.475,168.584z"/>
		<radialGradient id="SVGID_14_" cx="80.0322" cy="49.248" r="363.2733" gradientUnits="userSpaceOnUse">
			<stop offset="0" style="stop-color:#FFFFFF"/>
			<stop offset="1" style="stop-color:#808080"/>
		</radialGradient>
		<path fill="url(#SVGID_14_)" d="M56.803,85.874c1.204,2.922,4.64,2.922,6.881,5.325c3.266,0.349,6.188-0.171,8.94-1.203    c0.857-0.857,2.576,0.171,2.919-1.029c1.891-2.061,2.236,1.37,4.307,0.171c1.202-0.171,2.063-0.862,2.579-1.716    c4.64-0.69,9.288-1.549,14.271-0.862c0.508,2.235,4.296,2.923,2.747,6.02c2.057,2.402,6.02,1.715,8.772,3.26    c5.336,0,10.145,1.386,15.477,2.064c1.37,0.342,2.918,0.691,4.476,0.862c2.219,0.346,4.122,1.036,6.69,0.691    c2.077,0.345,4.13,1.199,6.54,0.857c2.236,0.521,4.479,0.862,6.878,1.208c2.414-0.866,3.447,1.719,5.849,0.85    c2.24,0.527,5.504,1.04,7.227-0.342c-0.171-2.918,0.52-5.329,1.023-7.735h0.346v-1.544c-3.783-1.895-7.909-2.415-12.201-2.756    c-3.094-1.2-7.056-0.683-10.149-2.061c-2.581-0.688-5.683-0.171-8.251-1.203c-2.76,0.516-4.821-0.858-7.564-0.342    c-2.926-1.032-6.536,0-9.292-0.862c-4.467,0.516-8.081-0.857-12.381-0.516c-1.545-0.341-3.268-0.524-3.439-2.231    c0-4.133,1.723-7.743,1.723-11.868c-2.239-0.175-2.588,2.751-2.93,4.466c-0.861,2.407-0.691,5.329-2.402,7.223    c-0.693-0.346-1.209-0.854-1.898-0.854c-3.607,1.541-7.387-0.691-10.997,1.204c-0.689,0-1.892,0.337-2.406-0.35    c-8.086-0.175-15.821,0.179-23.393,1.203c-0.517-0.175-1.372,0.346-1.201,1.036C55.6,85.704,56.458,85.529,56.803,85.874z"/>
		<radialGradient id="SVGID_15_" cx="80.0332" cy="49.2471" r="363.2777" gradientUnits="userSpaceOnUse">
			<stop offset="0" style="stop-color:#FFFFFF"/>
			<stop offset="1" style="stop-color:#808080"/>
		</radialGradient>
		<path fill="url(#SVGID_15_)" d="M146.227,179.929c-3.955-1.724-8.946-2.574-13.413-2.402c-3.784-1.208-7.909-1.033-11.356-2.411    c-2.748,0.516-4.65-1.203-7.044-0.345l-0.517-0.517c-2.073-0.17-4.126-0.857-6.369-0.17c-2.752-0.342-6.024,0-8.081-1.716    c-0.865-0.87-1.898-1.208-2.747-2.061c-2.76-1.211-5.337-2.59-6.709-5.158c-1.55-0.861-2.922-2.244-3.268-4.308h-0.345    c0-1.544-2.241-3.264-0.341-4.126c-0.343-1.028,0.859-2.235-0.17-3.093c-0.689,0.516-2.246-0.35-2.246,1.032    c0.346,1.549-0.677,2.923-0.677,4.122c-0.514,1.894,0.677,3.959,1.89,5.512c0.172,1.536,0.516,3.089,1.203,4.125    c-0.17,3.438-0.343,7.219-1.031,10.149h-0.172v1.024c-0.867,0.512-0.524,2.235-1.89,2.406c-1.205,2.93-3.274,5.336-5.164,7.222    c-1.713,1.553-3.095,2.585-4.815,4.126l-1.888,0.516h-1.892c0.17,0.858,1.033,0.858,1.892,0.517    c0.685,0.341,1.717,0.341,1.888-0.341c2.235,0.17,3.102-1.033,4.298-2.062c0.517,0.342,1.041,0.683,1.375,1.716l-3.094,1.548    c-1.202,1.204,0.868,3.272-1.032,3.951c-0.516,1.032,0.173,2.073,0.173,3.105c-0.689,2.061-3.78,1.708-3.266,4.296h-0.172v1.199    c3.266,1.203,6.017,2.236,9.462,2.922c0.85,1.032,2.742,0.861,3.952,1.553c2.063-0.179,3.602,1.37,5.501,0.679v0.35l2.578,0.171    v0.171c1.548,0.516,3.273-1.029,4.307,0.17l5.146,0.516c2.585,1.728,6.198,0,9.121,1.385c1.203,0.85,2.756-0.861,3.442,0.679    c2.752-1.02,4.638,0.695,7.219,0.695c2.931-0.524,5.5,1.366,8.248,1.021c1.56,1.557,3.45-0.171,5.166,0.699    c2.235,0.341,3.435-1.21,2.934-3.094h0.155v-1.901c1.207-0.691,0.69-2.232,1.723-3.093c0.861-1.89-1.378-1.89-2.231-2.577    c-2.76,0.171-4.13-1.544-6.885-0.858c-2.053-1.548-4.468-0.516-6.87-1.032l-0.345-0.687c-3.796-0.517-7.231-0.517-10.67-1.557    c-1.715,0.183-3.601-0.346-4.979-0.849c-2.582,0.17-4.812-0.517-7.397-0.171c-1.029-1.549-2.411,0.171-3.776,0    c-3.276-1.029-8.262-1.549-12.212-1.891v-0.175l-2.58-0.345c-2.584-0.35-2.06-3.089-2.06-5.162H79.67    c0-0.516-0.688-1.203-0.343-1.719c1.382-2.749,3.445-4.643,5.507-6.012c1.89-2.751,6.188-2.581,8.936-4.646    c3.61-0.687,7.227,1.894,11.178,1.374c6.016,1.895,14.108,2.065,20.81,3.098v0.174l3.606,0.171    c4.308,0.858,8.958,2.573,13.254,2.402c3.609,0.341,0.85-3.605,2.22-5.154C145.016,183.029,147.26,181.993,146.227,179.929z"/>
		<radialGradient id="SVGID_16_" cx="80.0327" cy="49.2417" r="363.2931" gradientUnits="userSpaceOnUse">
			<stop offset="0" style="stop-color:#FFFFFF"/>
			<stop offset="1" style="stop-color:#808080"/>
		</radialGradient>
		<path fill="url(#SVGID_16_)" d="M73.311,180.27c1.201-1.195,2.063-2.915,2.063-4.638h-2.063c-0.517,2.573-2.234,4.467-4.471,5.67    C70.388,183.545,71.762,180.444,73.311,180.27z"/>
		<radialGradient id="SVGID_17_" cx="80.0332" cy="49.2476" r="363.2761" gradientUnits="userSpaceOnUse">
			<stop offset="0" style="stop-color:#FFFFFF"/>
			<stop offset="1" style="stop-color:#808080"/>
		</radialGradient>
		<path fill="url(#SVGID_17_)" d="M71.247,168.072c-1.374-0.174-1.891,0.683-3.265,0.512c-0.514,1.545-2.404,2.065-1.719,4.471    c0.173,0.687,1.375,1.029,2.062,0.512c0.86,0,0-1.544,0.86-1.544C68.84,169.958,71.419,169.958,71.247,168.072z"/>
		<radialGradient id="SVGID_18_" cx="80.0342" cy="49.2383" r="363.2889" gradientUnits="userSpaceOnUse">
			<stop offset="0" style="stop-color:#FFFFFF"/>
			<stop offset="1" style="stop-color:#808080"/>
		</radialGradient>
		<path fill="url(#SVGID_18_)" d="M31.186,344.835c1.719-2.406-1.384-3.093-0.515-5.845c-1.032-0.512-1.55-2.064-1.889-3.264    c-1.549,0-0.697-3.093-2.933-2.072c0.689,3.792-0.172,8.605,2.406,11.011c0,1.718,1.728,2.061,1.728,3.955    c1.031,0.18,1.546-0.346,2.406-0.521C33.076,346.383,30.843,346.555,31.186,344.835z"/>
		<radialGradient id="SVGID_19_" cx="80.0322" cy="49.2495" r="363.2747" gradientUnits="userSpaceOnUse">
			<stop offset="0" style="stop-color:#FFFFFF"/>
			<stop offset="1" style="stop-color:#808080"/>
		</radialGradient>
		<path fill="url(#SVGID_19_)" d="M129.708,398.828c-9.287-2.065-17.884-5.674-27.171-7.218v-0.171l-2.744-0.18v1.895    c2.053,0.861,2.573,3.102,4.475,4.305c0,3.268,2.918,3.602,3.776,6.015c4.471,6.191,13.588,8.426,19.087,13.921    c2.402,1.046,3.435-1.361,5.853-1.191C134.347,409.665,128.859,405.71,129.708,398.828z"/>
		<radialGradient id="SVGID_20_" cx="80.0332" cy="49.1479" r="363.3732" gradientUnits="userSpaceOnUse">
			<stop offset="0" style="stop-color:#FFFFFF"/>
			<stop offset="1" style="stop-color:#808080"/>
		</radialGradient>
		<path fill="url(#SVGID_20_)" d="M105.293,425.656l-0.345,0.859l3.442,0.172C108.561,424.964,106.317,425.997,105.293,425.656z"/>
		<radialGradient id="SVGID_21_" cx="80.0391" cy="49.2397" r="363.2825" gradientUnits="userSpaceOnUse">
			<stop offset="0" style="stop-color:#FFFFFF"/>
			<stop offset="1" style="stop-color:#808080"/>
		</radialGradient>
		<path fill="url(#SVGID_21_)" d="M132.468,504.929c-0.345-2.063,0-4.307-1.044-7.043c0,4.467-1.374,7.901-0.512,12.201h0.869    c2.232-0.175,0.687-3.438,1.204-5.158H132.468z"/>
		<radialGradient id="SVGID_22_" cx="80.0327" cy="49.2563" r="363.2712" gradientUnits="userSpaceOnUse">
			<stop offset="0" style="stop-color:#FFFFFF"/>
			<stop offset="1" style="stop-color:#808080"/>
		</radialGradient>
		<path fill="url(#SVGID_22_)" d="M89.473,534.682c0.689,0.684,1.891,0.854,1.549,2.406c0.695,0,1.374,0.17,1.717-0.354    c0.859,0.354,1.89,0.865,2.928,1.216c1.033-0.351,1.378,0.509,2.053,0.854c1.561-0.175,1.561,1.378,3.45,0.856    c2.748,0.69,4.996,1.724,8.077,2.239v0.17c2.235,0.518,3.609,2.232,6.531,1.899v0.171h1.029c2.759,1.193,0.873,4.466,1.731,6.874    c-1.378,3.607-3.271-0.684-6.023,0.519v1.031c0.87,0.854,2.239,1.03,3.264,1.545c0.688,1.034,2.585,1.205,2.073,3.098    c1.715,2.061,1.886,5.496,1.541,8.773h-0.337c0.337,1.71-1.204,1.71-0.691,3.426c2.228,1.045,0.521,5.507,1.374,7.401    c0.333,0.342,0.171,1.027,0.171,1.553c1.724,2.398,0,7.047,1.549,9.796c1.377,1.202,0.345-1.376,1.548-1.03l0.52-28.89h0.17    c-0.52-3.784-0.861-9.107,0.171-12.902h0.174v-1.543c-0.174-1.549-2.069-1.033-3.101-1.721c-0.35,0-1.032,0.342-1.032-0.344    c-3.613-0.858-6.524-2.236-10.138-3.097c-1.04,0-1.727-0.68-2.584-1.03c-1.894,0-2.918-1.031-4.65-1.202    c-4.296-0.861-7.562-2.575-12.375-2.747v-0.175c-0.516,0-1.548-0.171-1.548,0.517C88.785,534.325,88.785,535.016,89.473,534.682z"/>
		<radialGradient id="SVGID_23_" cx="80.0352" cy="49.041" r="363.4252" gradientUnits="userSpaceOnUse">
			<stop offset="0" style="stop-color:#FFFFFF"/>
			<stop offset="1" style="stop-color:#808080"/>
		</radialGradient>
		<path fill="url(#SVGID_23_)" d="M106.317,552.564v2.75c0.354,1.203,1.211,2.576,2.76,1.716c0.865-0.513,0.694-1.374,0.694-2.578    h-0.353c-0.341-0.172-0.17-0.516-0.17-0.857C108.561,553.073,107.529,552.221,106.317,552.564z"/>
		<radialGradient id="SVGID_24_" cx="80.0327" cy="49.2256" r="363.2963" gradientUnits="userSpaceOnUse">
			<stop offset="0" style="stop-color:#FFFFFF"/>
			<stop offset="1" style="stop-color:#808080"/>
		</radialGradient>
		<path fill="url(#SVGID_24_)" d="M82.771,456.955c-1.213-2.922-4.133,0.342-6.196-1.382c-1.201,2.585,0.516,4.988,0.859,7.567    c1.041,2.585,4.82,2.071,6.532,3.79c3.617,0.85,4.647,4.629,8.773,3.779c2.406-3.779-0.344-7.913-0.852-12.039    C88.263,460.219,86.554,455.749,82.771,456.955z"/>
		<radialGradient id="SVGID_25_" cx="80.0288" cy="49.124" r="363.3752" gradientUnits="userSpaceOnUse">
			<stop offset="0" style="stop-color:#FFFFFF"/>
			<stop offset="1" style="stop-color:#808080"/>
		</radialGradient>
		<path fill="url(#SVGID_25_)" d="M156.547,494.264v-0.511c-2.074-0.339-2.764-2.582-5.167-2.241l0.175,2.072    C152.413,495.133,154.986,494.264,156.547,494.264z"/>
		<radialGradient id="SVGID_26_" cx="80.0322" cy="49.2461" r="363.2783" gradientUnits="userSpaceOnUse">
			<stop offset="0" style="stop-color:#FFFFFF"/>
			<stop offset="1" style="stop-color:#808080"/>
		</radialGradient>
		<path fill="url(#SVGID_26_)" d="M250.426,99.113c0.517-3.606-3.439-3.102-3.609-6.361c-1.549-1.553-3.268-2.585-4.982-3.956    c-0.862-2.406-4.301-0.698-5.52-2.922c0.341-2.414-1.357-4.125-1.013-6.535c2.231-2.411-0.862-4.987-0.175-7.223    c0-1.548,0.846-2.755,0.175-4.296c-1.724-0.346-2.427-2.588-3.459-3.617c0.69-2.064-2.386-1.021-1.874-3.093    c1.533-2.231-1.219-3.093-0.874-5.336c-1.89-1.537,0.532-5.496-2.06-6.523c-0.672-1.382,1.199-1.728,1.199-2.756    c0-1.203-1.545-0.35-2.213-0.691c-1.227-0.69-1.739-1.89-1.397-3.609c0.878-2.231,3.097-3.775,3.269-6.361    c-0.857-2.239-3.439-2.239-5.159-2.93c-0.511-0.846-1.544-1.033-2.234-1.544c-1.204-0.163-2.061,0.512-2.919,0.869    c-3.268-0.357-7.219,1.025-9.812-1.207c-3.426-0.683-5.482-3.613-9.612-2.927c-3.966,1.033-7.576,2.756-10.327,4.988l-3.955,6.02    c0.174,2.235-1.369,4.3-0.17,6.532c-0.342,1.719-0.855,3.446-1.199,5.166c-2.748,3.951-3.094,8.938-4.643,13.405    c-1.207,1.89-0.691,4.475-2.064,6.366c0.512,2.235-1.199,5.844,1.715,6.714c8.256,2.914,17.364,3.955,25.627,7.04    c13.066,4.133,26.318,8.259,39.377,12.38c4.131,0.354,4.301,4.475,5.5,7.397c-0.342,3.955-2.061,7.56-4.467,10.149    c-1.203,0.849-3.609,0.679-4.983,0.17c-4.813-1.728-9.815-3.101-14.452-5.336c-3.266,0-5.504-2.232-8.598-2.577    c-8.935-2.923-18.039-5.5-27-8.43c-4.127-2.065-9.105-1.89-13.397-3.438c-2.244,0.524-4.126-1.199-5.858,0.171    c0.35,2.064-0.511,3.613-0.856,5.507c-1.723,4.125,2.589,4.471,4.817,5.678c22,5.496,43.674,11.865,65.003,19.079    c1.546,1.382,3.094,2.935,3.61,5.333c0.512,5.337-1.895,9.974-5.35,12.726c-1.357,0.517-2.561-0.341-4.121-0.341l-11.516-4.129    c-4.986-0.683-9.279-3.264-14.267-4.13c-6.376-2.914-13.409-4.125-19.956-6.524c-2.752-1.041-5.666-1.552-8.422-2.073    c-2.574-2.064-6.188-1.032-8.943-2.402c-2.41,0.688-4.466-1.548-6.535,0.171c0,0.517-0.346,1.37,0.342,1.89    c-0.688,1.719,0,4.122-0.857,5.853c0.857,2.911,4.301,3.427,6.71,4.467c2.753-0.17,4.812,1.724,7.561,1.549    c12.742,2.918,24.948,7.219,37.32,10.828c6.874,2.069,13.751,3.963,20.469,6.54c2.046,2.748,2.387,7.735,1.033,11.178    c-1.894,2.577-2.769,5.492-6.377,5.674c-5.333-1.552-10.657-3.268-15.985-4.825c-5.496-1.374-10.654-3.951-16.515-4.983    c-3.077-1.719-6.708-1.719-9.8-3.268c-2.578,0-4.121-1.891-6.694-1.711c-2.761-1.208-5.512-2.24-8.787-2.415    c-4.463-1.894-9.61-1.894-14.955-1.72c-1.203,1.549,0.358,3.784-0.171,6.016c-0.512,0.35-0.341,1.207-0.341,1.894    c2.065,3.264,6.877,3.264,10.32,4.812c1.365-0.333,2.235,0.869,3.612,0.524c2.406,1.199,5.334,0.679,7.732,2.065    c2.758,0.171,5.162,1.203,7.738,2.057c3.436,0.861,6.702,1.552,10.141,2.414c1.564,1.37,3.777,0.683,5.346,2.057    c8.247,2.406,16.328,5.158,24.748,7.048c3.436,0.695,4.312,3.276,5.516,6.198c0.159,4.991-1.905,9.462-4.982,11.682    c-4.83,0.52-9.125-1.374-13.247-3.089c-1.032,0.349-1.724-0.517-2.414-0.688c-2.419,0-4.122-1.894-6.548-1.718    c-2.902-1.549-6.512-1.891-9.779-2.923c-8.779-2.755-17.551-5.336-26.497-7.738c-1.707-0.342-3.256-1.207-5.325-0.858    c-2.925-1.723-7.051-0.171-10.14-1.211c-1.374,0.174-2.589,0.691-2.065,2.577c0.862,1.894,0.346,4.305,0.517,6.369    c3.435,2.922,8.422,2.922,12.548,4.812c10.148,2.248,20.123,4.637,30.105,7.401c9.795,2.923,19.77,5.325,29.221,8.775    c2.401,1.874,3.279,6.178,2.748,9.45c-0.688,3.955-3.249,6.532-6.879,7.561c-7.215-1.89-14.281-4.125-21.307-6.187    c-3.438-1.028-6.719-2.235-10.16-2.922c-2.578-0.694-4.812-1.89-7.728-2.061c-2.589-1.204-5.853-1.375-8.604-2.415    c-1.89-1.374-4.467-0.691-6.368-2.061c-3.952-0.171-7.377-1.541-11.349-1.723c-2.227-0.512-5.146-0.512-7.219,0    c0,2.922-1.374,5.333-0.861,8.604c2.244,1.548,5.166,2.577,8.08,3.093c1.898,1.032,4.312,1.032,6.537,1.544    c9.637,2.235,19.61,3.784,28.895,6.707c2.06,1.203,4.808,0.687,6.869,2.068c2.601,0.171,4.983,1.204,7.409,2.065    c4.471,0.861,8.764,2.574,13.23,3.605c3.268,0.346,3.609,4.642,4.471,7.219c0,3.451-1.377,6.54-3.092,8.938    c-3.095,4.825-8.428-0.341-12.553-0.503c-11.527-3.963-23.562-6.877-35.252-10.32c-4.642-1.032-8.946-2.751-13.583-3.268    c-1.723-1.204-4.125-1.033-6.027-1.544c-3.081,0.17-6.52-0.521-9.104,0.512c-0.691,3.269,1.027,5.503,0.857,8.775    c2.064,2.569,6.54,2.228,9.632,3.609c5.504,0.687,10.32,2.739,15.985,3.093c2.24,1.378,5.508,0.687,7.748,2.057    c12.377,2.755,24.059,6.877,36.279,9.97c2.753,1.211,3.605,4.825,3.78,8.088c0,4.824-2.747,8.95-6.36,10.84    c-3.605-0.516-7.045-1.89-10.479-2.934c-14.457-5.325-29.757-8.248-44.373-12.718c-2.922-1.211-6.535-0.854-9.291-2.065    c-2.922,0.512-4.812-0.854-7.735-0.341c-1.032,0-0.512,1.195-0.512,1.723c-1.045,1.374,0,3.434-0.87,4.809    c-1.366,3.609,1.902,4.3,4.129,5.34c17.876,3.598,35.776,7.377,52.962,12.544c6.026,2.922,16.338,1.202,17.547,9.279    c0,4.821-1.209,9.808-4.473,12.214c-2.235,2.755-4.296-0.171-7.219,0.52c-2.593-0.349-4.812-1.374-7.234-1.544    c-2.572-1.382-5.67-1.382-8.246-2.411c-10.832-2.585-21.832-4.642-32.501-7.909c-3.093-1.382-6.869-1.382-9.974-2.406    c-2.748-0.353-5.682-0.524-8.605-0.524c-1.89,1.374-0.683,4.646-1.032,6.881c1.032,0.687,0,2.073,0.862,2.752    c-0.512,7.222,0.87,13.758,0.528,21.148l-0.528,0.694c0.528,6.02-0.862,11.344-0.341,17.535c-1.712,3.261,1.211,4.646,2.244,7.223    c2.231-0.171,1.536,2.756,3.954,2.406c1.211,2.752,5.162,2.235,6.698,4.297c2.244,3.097,7.228,1.04,9.288,3.95    c1.377-0.341,1.377,1.561,2.922,0.869c1.895-2.581,3.094,1.033,4.996,1.203c2.569,0.862,3.435-1.203,5.317-2.072    c0.86,0.699,2.072,0.357,3.101,0.357c2.584-1.211,4.987,0.857,7.738-0.186v-2.058c-0.69-0.679-0.516-1.891-1.883-1.366    c-0.868-0.17-0.689-0.87-0.689-1.557c0-0.86,0.521-1.374,1.54-1.374c-0.687-2.064,1.895-1.203,2.585-2.234    c-0.17-0.691,0.346-1.545-0.345-1.895c0.175-0.854-0.346-1.887,0.345-2.402c0.858,0,1.033,0.516,1.541,1.203    c2.926-1.374,1.207,3.264,4.301,1.549c0.857,0.341,0.687,1.373,1.027,2.064c1.895,0.861,2.065-1.211,3.094-2.064    c1.553-0.35,1.031,1.715,2.585,1.373c0.858-1.032,1.374,0.342,1.901,0.691c1.704-0.179,3.955,0.861,4.983-1.033    c-0.171-0.861,0.501-2.41-0.679-2.75c0.342-1.891-1.742-0.862-2.601-1.033c-0.517-1.73-2.577-0.342-3.264-1.383    c0-0.348-0.171-0.86,0.341-1.197c3.098,1.547,2.061-2.582,5.174-1.199c0.691-2.761,1.374-5.337,1.028-8.435    c-0.679-0.517-0.337-1.545-0.337-2.231c0.683-3.093,4.979-1.203,6.873-1.728l-0.17-2.914c-1.053-0.171-1.554,0.349-1.891,1.032    c-1.724,1.2-1.549-1.203-3.113-1.203c0.688-2.414-1.533-2.414-3.264-2.244c-0.52-0.17-0.691-0.678-0.52-1.195h-1.033    c-1.012-0.174-0.512-1.208-0.688-1.898c-0.154-1.203,0.862-1.548,1.721-1.89c1.568-0.862-0.514-1.891-0.514-2.752    c-0.17-1.203,1.374-0.683,2.082-1.203c-0.878-3.264,3.072-3.09,3.949-4.812c0.517,0.175,1.887,0,2.217,1.024    c0.686-0.174,1.563,0.175,2.084-0.333v-1.033c0.512-1.204,2.061-1.549,3.261-1.724c0-1.207,0-2.581,0.862-3.101    c1.031-1.021,1.544-2.402,2.576-3.089v-2.064c0.349-1.203,0.52-3.264,2.405-2.923c-0.345-2.406-1.206-4.645-0.857-7.219    c0.857-2.584-1.548-3.1-1.199-5.336c1.029-0.512,1.199-1.711,1.199-2.744c0.171-2.41,3.095-1.894,2.923-4.3    c-2.065-0.687,0.516-2.064,0.346-3.105c3.779-0.504,1.541-5.158,2.918-7.215c0.688-1.894-1.203-3.268,0-4.987    c-0.17-0.683,0.513-1.898-0.517-2.065c-0.86-1.211,0.347-2.057,1.029-2.402c-0.513-2.073-1.204-5.162,0.69-6.536    c3.264-0.861,2.402-5.157,3.093-7.905h1.032c-0.52-3.958,1.049-7.06,0.533-10.84c3.247-1.544-2.598-3.605,1.188-5.158    c-2.582-2.406,1.027-4.133,1.715-6.015c-0.346,0-0.688,0-0.857-0.342c0-0.698-0.342-1.727,0.342-2.239    c2.755-0.691,1.563-4.471,2.941-6.362c-0.187-0.861,0.326-1.719-0.346-2.072c0.346-4.472,0.842-9.971-0.512-14.093    c0.342-1.373-0.691-3.608,0.857-4.304c0.155-3.784,3.781-6.015,2.922-10.324c1.529-2.049-1.223-3.426-0.861-5.321    c-2.918-1.711,0.342-4.987-1.215-7.226c-0.179-1.545-0.179-3.435,1.215-3.951c2.391,0,2.391-2.577,4.129-3.097    c0.68-2.057,1.029-3.613,2.062-5.325c-0.35-3.788,1.012-8.259-1.204-11.011c0.513-4.646,3.435-8.081,5.667-11.682    c1.552-1.386,2.406-3.962,2.926-6.199c0.512-2.759-0.861-4.645,0-7.055c-1.724-1.891,0.17-5.154-1.549-7.049    c2.748-0.341-0.516-4.463,2.748-4.292c2.41-4.825,4.301-10.149,3.613-15.657C251.459,100.836,251.112,99.632,250.426,99.113z"/>
		<radialGradient id="SVGID_27_" cx="80.0308" cy="49.2427" r="363.2831" gradientUnits="userSpaceOnUse">
			<stop offset="0" style="stop-color:#FFFFFF"/>
			<stop offset="1" style="stop-color:#808080"/>
		</radialGradient>
		<path fill="url(#SVGID_27_)" d="M102.887,336.926c0.35,0.683,0,2.41,1.382,1.894c0.854-6.016,0.854-12.727,1.719-18.568h-1.382    C101.342,324.545,103.407,331.43,102.887,336.926z"/>
		<radialGradient id="SVGID_28_" cx="80.0327" cy="49.2505" r="363.2733" gradientUnits="userSpaceOnUse">
			<stop offset="0" style="stop-color:#FFFFFF"/>
			<stop offset="1" style="stop-color:#808080"/>
		</radialGradient>
		<path fill="url(#SVGID_28_)" d="M105.468,346.205c0-0.842,0-2.402-1.549-1.711c-0.512,4.995,0.35,9.288,2.398,12.551    c0.17,1.553,1.902,2.414,2.073,4.297c3.264,2.243,4.808,6.194,9.117,7.226c-0.175-3.435-3.78-3.604-4.309-6.539    c-1.715-1.37-2.577-2.919-3.427-5.154h-0.353c-0.516-3.093-3.252-3.78-2.931-7.563    C105.817,348.619,105.293,347.758,105.468,346.205z"/>
		<radialGradient id="SVGID_29_" cx="80.0332" cy="49.2207" r="363.2938" gradientUnits="userSpaceOnUse">
			<stop offset="0" style="stop-color:#FFFFFF"/>
			<stop offset="1" style="stop-color:#808080"/>
		</radialGradient>
		<path fill="url(#SVGID_29_)" d="M93.085,633.039c1.03,0.854,2.583,0.854,2.583,2.408l1.378-1.721    c3.263-4.466,4.295,2.581,8.592,0.85c1.891,1.731,5.845,0.528,6.532,3.446c0.516,2.925-1.882,3.785-2.752,5.683    c-2.406,1.719-2.577-2.585-5.325-0.87c-0.175-1.544-1.902-1.027-2.752-0.86v1.031c0.85,0,1.895-0.171,2.752,0    c1.544,3.093,6.707,1.033,7.561,4.479c2.414-1.036,4.125,1.715,6.027-0.171c1.541-1.891,2.562,1.021,4.122,0.684    c1.033-1.207,1.545-2.574,1.033-4.134c-1.723-1.89,0.512-4.293,0-5.842c-2.073-2.234,1.207-3.958,0-6.187    c-0.691-1.036-0.341-2.746,0.171-3.616l-0.171-2.579c-1.548-1.888,1.207-3.606,0-5.672c-2.244-2.243,1.552-3.259,0-5.507    c-1.548-1.371,0.171-3.257,0.171-4.642c-0.512-0.342-0.691-1.205-1.548-0.858l-2.065,4.982c-1.711,0.87-2.926-1.024-4.638,0    c-1.898,6.541,0.513,14.788-2.068,20.985c-1.723,0.175-2.744-1.549-4.296-1.378c-2.402-1.716-5.503-2.401-8.251-3.783v-1.549    H99.11c-0.357,0-0.869,0.343-0.699,0.687c-0.862,1.04-1.711-0.174-2.573-0.174c-1.209-1.196,0.52-2.061,0-3.435    c-0.171-1.034-1.039-2.065-2.24-1.724c-2.577,3.098-4.814-1.373-7.732-0.171v1.202C90.508,625.298,90.848,629.769,93.085,633.039z    "/>
		<radialGradient id="SVGID_30_" cx="80.0322" cy="49.249" r="363.2751" gradientUnits="userSpaceOnUse">
			<stop offset="0" style="stop-color:#FFFFFF"/>
			<stop offset="1" style="stop-color:#808080"/>
		</radialGradient>
		<path fill="url(#SVGID_30_)" d="M109.248,307.522c1.04,0.688,0.523,3.269,3.097,2.236c1.381-0.342,1.552-1.895,2.581-2.923    c0.52-1.028,0.679-2.402,1.541-3.264c-0.517-2.93,4.646-5.686,0.516-7.227c-1.033,0-1.886-0.687-2.749-1.033l-6.19-0.171v-0.174    c-3.951-0.171-7.048-1.375-10.665-2.065c-0.333,0-0.851,0-0.679-0.512h-1.9c-1.374,0.171-2.061-0.342-2.912-0.691h-1.209    c-1.378,0-2.065-0.508-2.933-0.857l-4.296-0.171v-0.341c-4.64,0.17-7.733-1.894-12.545-1.374v-0.175l-4.986-0.174v-0.342h-5.163    c-1.032-0.516-2.234-1.382-2.234-2.748c2.234-1.374,3.272-3.963,3.091-7.06h0.181l0.173-4.122h0.173v-3.605    c-0.346-1.032-2.416-1.56-2.931-0.171c1.719,3.09-1.032,4.634-0.687,7.728c0,0.17-0.171,0.52-0.516,0.52    c-0.171,1.724,0.345,3.951-0.346,5.162c-1.374,1.719-3.78,1.549-5.843,0.858c-3.436-1.898-7.733,1.032-11.35-0.858v-0.174    c-2.235-0.349-4.64-0.866-7.047-1.211c-0.344-0.171-1.031,0.174-1.031-0.504c-3.437,0.333-5.331-2.231-8.944-1.036    c-0.174,0.512,0.171,0.687,0.341,1.036c1.211,0.504,2.406,0.85,3.782,1.367c1.553,2.243,4.64,1.902,7.743,2.243v0.171l3.778,0.175    v0.171l4.125,0.341v0.164l4.479,0.174v0.17c2.063-0.345,3.085,0.696,4.986,0.696v0.174c2.231-0.699,3.093,1.033,4.81,1.204    c1.032,1.032,3.094,1.203,3.094,3.264c1.556,0.341,0,2.751,2.062,2.751c0.344,1.886,3.104,0.517,4.469,1.204    c1.555,2.584,4.993,3.264,6.54,5.845c0.517,1.552,2.413,1.033,3.437,2.064c0.343,1.724,2.406,1.724,2.759,3.438    c-0.353,0.517-0.699,1.549-1.719,1.549c-1.213,0-1.213-1.033-2.414-0.679c0,0.333,0.17,0.854,0,1.195l-1.032,1.544    c-1.204-0.512-0.689,0.858-1.204,1.211l-0.516,0.516l-2.404,2.057c-1.031,0.687-0.689-1.032-1.721-0.516    c-0.858,0.17-0.34,1.203-0.515,1.894h0.86c0.687,0.691,1.892,0.862,1.719,2.41c1.031,0.175,1.89-0.516,2.406,0.679    c1.031,5.341-0.171,12.385,1.031,17.372c0.17,0.854,0.516,1.894,1.202,1.552c1.204-1.374,0.344-4.125,0.868-6.02h0.336v-17.03    l0.857-2.065l0.526-0.85l0.679-0.171l2.928-1.723c0.861-0.171,2.228,0.341,2.742-0.346c2.416,1.204,4.993,2.24,7.064,4.297    c0.516,1.894,2.57,3.264,3.255,6.369l0.528-1.041c0-1.37-0.528-2.402-0.699-3.435c0.516-2.41-1.89-2.581-1.376-4.987    c-1.02,0-2.575,0.17-2.746-1.029c2.061-0.861,0.171-3.613,1.037-5.162c0.689-1.373,1.881-2.064,3.43-2.577    c2.746-2.576,6.53-3.78,10.664-4.642C108.39,300.133,109.942,303.051,109.248,307.522z"/>
		<radialGradient id="SVGID_31_" cx="80.0322" cy="49.2388" r="363.2825" gradientUnits="userSpaceOnUse">
			<stop offset="0" style="stop-color:#FFFFFF"/>
			<stop offset="1" style="stop-color:#808080"/>
		</radialGradient>
		<path fill="url(#SVGID_31_)" d="M120.941,652.631c-1.886,1.04-2.057-1.535-3.958-1.189c-0.175,1.36,0.349,2.059,0.698,3.094    c-1.214,3.434-3.267-0.347-5.336,0c0,1.543,2.41,2.741,0.17,3.604c-0.691,1.722,1.211,1.378,1.211,2.581    c0.171,0.856,1.541,1.544,0.508,2.231c0,1.555,0,3.275-1.377,3.783c-0.341,2.236-3.78,2.072-3.26,4.988    c2.398-0.864,3.26,1.553,5.849,0.86c0.85,0.692,1.537,0.863,1.886,2.24c-0.524,0.687-0.865,1.203-1.886,1.028    c-0.862,2.065,1.191,2.065,1.362,3.438c-0.171,0.694-0.858,1.203-1.362,0.694c-1.548-1.387-3.45-1.557-4.987-2.589    c-0.345-0.686-1.727,0.171-2.068-0.686c-2.402,0.344-2.573-2.062-5.154-1.546v-0.172c-2.414,0.172-2.585-2.409-4.995-2.062    c-0.521-0.347-1.195-0.176-1.541-0.859c-1.372,0-1.726-1.026-2.931-0.856c-2.406,1.716-3.778-1.203-6.024-0.521    c8.783,5.333,18.742,7.4,27.521,11.699c0.178,0,0.512,0.168,0.512,0.504c2.415,0.356,3.443,2.409,6.715,1.559    c0.512-1.895-1.207-2.755-0.35-4.471h0.35l-0.35-2.067c-0.171-1.207-0.171-2.583,0-3.785h0.35c0.341-1.72-0.691-2.751-0.861-4.121    c2.064-1.894-0.521-4.297,0.512-7.06h0.35l-0.35-2.403c-0.512-1.548,0.17-3.092,0.862-3.955    C122.665,655.391,122.315,653.156,120.941,652.631z"/>
		<radialGradient id="SVGID_32_" cx="80.0332" cy="49.1719" r="363.3226" gradientUnits="userSpaceOnUse">
			<stop offset="0" style="stop-color:#FFFFFF"/>
			<stop offset="1" style="stop-color:#808080"/>
		</radialGradient>
		<path fill="url(#SVGID_32_)" d="M100.139,651.952c-0.521,0.679-0.521,1.719-1.386,2.236c0.179,2.405,1.727-0.171,3.268,0.508    c1.037-0.161,0.346-1.895,0.516-2.744H100.139z"/>
		<radialGradient id="SVGID_33_" cx="80.0308" cy="49.002" r="363.4236" gradientUnits="userSpaceOnUse">
			<stop offset="0" style="stop-color:#FFFFFF"/>
			<stop offset="1" style="stop-color:#808080"/>
		</radialGradient>
		<path fill="url(#SVGID_33_)" d="M109.248,658.14c0.694-2.062-1.374-1.375-2.061-2.062c-1.199,0-2.751-0.342-3.268,0.349    c-0.171,1.03,0.175,1.542,0.35,2.403C105.988,658.659,108.561,659.518,109.248,658.14z"/>
		<radialGradient id="SVGID_34_" cx="80.0347" cy="49.2754" r="363.2404" gradientUnits="userSpaceOnUse">
			<stop offset="0" style="stop-color:#FFFFFF"/>
			<stop offset="1" style="stop-color:#808080"/>
		</radialGradient>
		<path fill="url(#SVGID_34_)" d="M94.8,326.093c-0.17,0-0.512,0-0.685,0v2.061c0.344-0.17,0.859,0.175,1.031-0.17    C94.975,327.297,95.497,326.264,94.8,326.093z"/>
	</g>
	<path d="M309.235,105.132c-0.516-2.589-0.687-5.158-1.373-7.743c0-2.228-0.862-4.638-1.207-7.223   c-2.745-8.76-6.869-17.876-12.56-24.246c-1.203-1.032-1.895-2.911-3.074-3.784c-1.913-2.748-4.832-4.642-6.205-7.731   c-3.606-2.93-7.053-5.841-10.487-8.946c-1.028-0.684-1.39-2.581-3.09-2.406c-1.723-1.895-4.129-3.094-6.035-4.638   c-0.861-0.521-1.548-1.382-2.386-1.553c-8.445-5.167-17.551-9.974-26.163-15.132c-3.077-0.516-5.324-3.272-8.763-3.097   c-3.269-2.402-7.906-2.927-11.516-4.987c-1.895-0.346-3.605-0.857-5.5-1.195c-1.201-1.215-2.922-1.044-4.47-1.728   c-2.427,0.512-3.947-1.199-6.032-1.72c-3.78-0.512-7.027-2.235-10.828-2.751c-2.572-0.857-5.158-1.553-7.906-1.711   c-2.06-1.032-4.299-1.381-6.872-1.203c-6.02-2.077-14.267,0.853-19.953-2.422c-1.548-0.171-3.26,0.346-4.467-0.508   c-4.122,0.337-7.901-0.683-12.027-0.337c-1.902,0.337-3.804,0.845-5.853,1.191c-3.609-1.367-4.467,2.588-8.255,1.215   c-3.622-2.069-9.117-1.033-13.079-0.35c-3.667,0.836-8.307,1.199-9.825,4.675c-2.07-0.242-5.873-0.394-8.741,1.17   c-2.922,0.174-5.845,0.861-8.258,2.064c-4.498,1.363-6.619,5.319-9.102,8.873c-2.815,1.235-8.505,3.962-10.88,6.752   c-0.345,0.038-0.699,0.079-0.994,0.02c-5.499,3.271-9.111,9.12-11.688,15.652c-0.344,3.442-2.587,6.187-2.406,9.967   c-1.201,1.731-1.201,3.958-1.376,6.194c-0.697,1.211-0.697,2.752-1.211,4.125c0.695,2.41-1.376,3.61-1.195,5.853   c0.172,2.752,1.195,5.158,3.093,6.707c1.376,1.715,4.814,0.683,5.158,3.435c-0.689,2.231,0.171,5.166-1.205,6.873   c-3.618,0.87-9.117-1.199-11.005,2.418c-1.033,3.609-2.065,7.048-2.238,10.999c0.518,2.41,2.579,2.585,4.126,4.126   c2.416-0.333,3.095,1.898,5.328,2.069c2.587,0.687,0.344,3.268,0.866,5.153c-0.695,0.862-0.171,2.756-1.718,3.098   c-3.78,0.341-8.259-0.861-11.352,1.041c-2.406,3.084-2.577,7.377-2.577,11.681c0.514,2.764,3.093,3.955,5.67,4.643   c1.033,2.076,4.301,0.174,4.985,2.764c-0.685,0.674-0.17,2.052-0.345,2.918c-1.891,1.036,0.175,3.78-1.718,4.642H32.208   c-2.226,0.857-2.226,4.122-3.256,6.194c-0.17,2.228-0.526,4.467-0.343,6.869c1.717,1.898,4.467,3.442,7.39,3.792   c1.89,0.512,2.234,2.231,2.062,4.292c-1.032,2.064-0.862,4.638-2.234,6.361c-0.516,0.35-1.205,0.865-1.548,0   c-2.577,0.524-4.477-0.862-7.22-0.342c-1.718,0.171-1.553,1.72-2.585,2.923c0.354,1.723-1.028,2.585-0.516,4.3   c-0.513,1.719-0.513,4.134,0,5.841c1.383,2.073,4.469,3.439,7.401,3.439c2.062,0.523,1.031,3.105,1.374,4.82   c-1.374,2.061-0.86,4.983-2.061,7.222c-1.205-0.174-2.586,0.171-3.438-0.516c-2.406,0.516-6.545-1.378-7.401,1.728   c0.175,3.435-2.061,5.837-1.205,9.625c0.516,2.056,3.268,1.715,4.477,3.089c1.543-0.171,2.746,1.032,3.784,1.203   c0.861,0.528,1.539,1.552,1.197,2.752c0.17,3.104-1.719,5.507-1.547,8.592c-0.172,0.866-0.689,1.727-1.711,1.556   c-2.243-1.032-4.649-1.556-7.399-1.203c-2.927,0.512-2.24,4.125-2.927,6.357c-3.78,8.093,6.532,4.995,8.944,9.292   c0.687,2.236-0.522,4.122-1.032,6.186c-0.175,2.406-0.859,4.467-1.725,6.532c-3.089-0.171-6.355-1.537-9.45-0.342   c-1.896,3.442-3.272,7.564-2.578,11.527c2.749,1.882,7.388,0.854,8.768,4.13c-1.891,3.609-1.204,8.422-3.782,11.515   c-1.037-0.175-2.071-0.349-2.925-0.861c-2.061,0.341-5.333-0.675-6.192,1.715c-0.177,4.3-1.374,8.426-2.24,12.564   c-0.681,3.776-0.854,7.738-1.372,11.518c-0.861,2.065,0,4.812-0.861,6.878c-0.684,10.665,4.988,20.116,11.352,25.968   c2.582,6.187,6.706,10.312,11.175,14.446c4.985,3.779,9.119,8.417,14.789,11.685c5.156,2.073,7.906,4.98,12.21,7.743   c7.391,3.435,14.618,7.905,22.696,10.661c1.717,1.378,3.788,1.72,6.025,2.069c1.89,1.374,4.973,0.505,6.53,2.564   c1.72,1.382-0.524,2.931,0.172,4.653c-0.696,1.371-0.172,3.264-0.346,4.984c-0.867,1.211,0,3.097-0.867,4.296   c0.343,4.994-1.194,9.287-1.88,13.924c0.17,2.241-1.546,3.621-1.041,6.199c-0.335,2.049-0.506,4.472-1.546,6.361   c-1.546,1.545-2.915,3.787-4.126,5.667c0,1.901-1.546,2.927-1.205,4.815c-1.202,2.074-1.202,4.475-1.717,6.888   c0.687,4.978-1.374,9.63,0.172,14.094c0.86,6.19,3.781,11.522,7.046,15.827c5.163,3.43,7.572,9.278,14.618,11.349   c1.553-0.347,3.093,0.171,3.784,1.535c-0.179,4.992,0.512,10.322-0.691,14.963c-2.062,1.556-5.32,0.524-8.079,0.699   c-1.038,0.171-1.384,1.373-1.038,2.576c-1.368,0-2.742-0.69-4.298-0.513c-1.54,1.542-0.517,4.122-0.85,6.184   c-0.344,2.414-3.093,1.894-4.812,2.589c-2.064,0.515-2.064,2.909-2.587,4.458c0.688,2.402,3.094,3.102,5.329,3.619   c0.866,1.031,1.041,2.404,0.866,3.777c2.228,2.244-0.687,4.812,0.861,7.05c0.171,1.212-0.346,2.072-0.861,2.931   c-0.181,1.194,0.345,2.063,0.861,2.918c0.344,1.031-0.516,1.553-0.861,2.41c0,1.373-0.181,2.748,0.861,3.779   c0.344,1.033-0.516,1.545-0.861,2.406c0.175,0.869-0.524,2.236,0.691,2.587c0.514,1.018-0.175,1.889-0.691,2.751   c0.175,1.031-0.351,2.234,0.516,2.917c0.853,0.861,0,2.066-0.516,2.927c0.175,1.031-0.524,2.745,0.691,3.264   c0.677,1.032-0.516,1.721-0.691,2.585c-1.03,2.228,2.228,3.956,0,5.672c-0.181,1.893,0.345,3.097,0.861,4.646   c-1.385,1.369-0.861,4.467-0.346,6.356c-1.546,2.244,1.196,4.646-0.516,6.368c0.175,1.034-0.524,2.749,0.691,3.262   c0.848,3.787-4.469,2.925-6.018,5.327c-0.18,2.241-1.038,3.952-1.727,5.844c0.689,3.272-1.204,6.029,0,9.118   c-0.514,4.304,0.859,8.602,3.79,10.664h0.677c0.87,0.68,2.762,0.85,2.587,2.583c-0.181,0.856,0.516,1.888,0,2.401v11.353   c-0.524,1.207-0.524,3.093,0,4.3c-0.181,0.688,0.345,1.72-0.351,2.062c-0.335,1.715,0.526,3.61,0,4.979   c-0.335,2.252,0.526,4.482,0,6.199c-0.679,1.894,1.212,3.267,0,4.981c0,1.732-0.173,3.452,0.351,4.987   c-2.587,2.761,1.711,5.339-0.866,8.256c-2.569,3.959-4.641,8.434-6.188,13.076c0.689,4.293,3.446,6.014,6.53,7.904   c0.614,0.609,0.947,1.425,1.152,2.32l-0.732,11.34h0.183c-0.142,2.99,0.517,6.018,2.662,7.662c2.416,2.412,6.367,4.817,10.32,5.51   c2.58,2.056,6.371,1.203,9.468,2.228l0.364-0.005c0.681,0.053,1.327,0.437,1.982,0.583c4.845,1.988,20.739,8.421,25.974,9.384   c0.04,0.236,0.117,0.43,0.396,0.524c0.773,0.157,1.679-0.119,1.975-0.932c0.133-0.081,0.249-0.159,0.366-0.238   c2.071,0.223,3.415-0.561,5.049-0.892c3.093-1.891,7.055-2.751,10.661-4.13c9.287-4.467,18.916-8.759,27.687-13.925   c2.577-1.891,5.15-3.092,7.902-4.642c6.723-6.365,17.896-8.089,20.988-17.71c0.854-4.641,0.854-9.625,0.854-14.617l-0.34-0.685   c0.34-4.128-1.029-7.573-0.514-11.697c-0.686-4.123-0.17-8.594-0.857-12.719c-0.861-1.557,0.172-3.794-0.691-5.167   c0.343-4.983-0.861-9.278-0.861-13.926c-0.512-2.58-0.861-5.331-0.861-8.255c-0.361-2.244-1.203-4.305-0.873-7.047   c-0.33-1.724-1.009-3.443-1.009-5.334c-0.175-5.84-1.894-11.343-2.431-17.371c-0.857-7.386-2.553-13.925-3.073-21.315   c-1.394-3.27-0.877-7.562-2.08-10.665c-1.358-13.754-5.329-26.131-7.901-39.372c0-3.102-1.383-5.847-2.064-8.435   c-0.176-2.919-2.236-4.979-2.062-8.077c-0.344-1.373-0.86-2.063-1.207-3.437c-0.861-4.821-3.438-9.801-2.4-14.446   c1.369-1.545,0.341-4.293,2.06-6.023c0.341-0.513,1.204-0.68,1.204-1.367c2.747-3.445,4.471-7.912,6.353-12.209h0.179v-1.033   c2.747-3.786,1.715-8.945,2.577-13.411c5.69-12.902,11.686-25.798,17.03-39.203h0.171v-1.036c1.894-3.957,3.608-7.398,4.638-11.524   c2.064-3.271,2.41-6.535,2.926-10.319l5.693-1.369c20.616-3.955,32.652-15.823,39.354-34.396h0.358   c0.687-3.274,1.698-6.355,2.39-9.621c1.395-2.243,0.69-5.511,2.081-7.925c-0.171-1.882,0.345-4.296-1.219-5.329   c-1.703-1.195-5.157-1.024-5.329-3.78c0.342-2.065,0.688-4.125,1.203-6.19c-0.687-5.845,6.373-1.715,9.129-4.121   c2.062-1.894,1.715-4.987,2.401-7.739c1.033-5.162-4.295-4.812-7.062-7.048c0.19-2.922,1.394-5.333,2.076-8.088   c0.501-3.78,5.328-2.061,7.909-3.093c1.721-1.548,1.89-4.125,2.577-6.361h0.346v-3.951c-1.202-2.061-3.61-3.28-6.015-4.483   c-1.199-3.26,1.202-5.325,1.031-8.255c0.858-2.911,3.605-1.537,6.017-1.708c4.637-0.524,3.093-6.194,4.637-9.466   c0.171-4.292-3.605-5.67-6.703-7.394c-1.373-1.195,0-2.573,0.172-3.784c0.516-2.235,0.69-4.471,3.268-5.325   c3.094,0.854,5.674-1.378,7.385-2.756c0.521-1.71,0.862-3.605,1.212-5.499c1.561-6.361-3.613-7.731-7.393-10.32   c-0.342-2.061,0.516-3.609,0.856-5.332c1.203-3.614,6.016-1.712,8.942-3.094c1.716-1.203,2.228-4.125,2.76-6.19h0.35   c-0.52-2.061,0.682-3.609,0.342-5.67c-2.252-2.585-4.468-4.821-7.581-6.54c-0.516-2.061-0.341-4.812,1.033-6.187   c1.032-0.691,2.923-0.691,4.121,0c2.256-0.183,3.959-1.378,5.349-2.752c2.061-2.061,1.031-5.333,2.387-7.568   c0.346-4.642-3.605-6.19-5.479-8.938c-1.739-0.341-2.772-1.374-3.109-3.101c0.512-1.032,0.512-2.228,1.37-3.089   c1.397-0.87,3.442-0.525,5.174-0.525c3.779-0.854,4.812-4.808,5.332-8.076c2.577-7.056-3.954-9.796-7.234-13.413   c-0.179-0.858-0.5-2.065,0.342-2.751c1.731,0,3.279-0.699,4.812-1.032c6.373-1.2,4.995-9.634,6.026-14.958h0.176v-4.642   c1.031-0.857,0-2.585,0.857-3.446C308.207,111.839,309.582,108.916,309.235,105.132z M61.099,40.644   c0.757-3.748,1.963-7.043,3.225-10.481c0.823-1.306,3.574-5.222,8.029-7.03c-2.954,6.033-4.847,13.004-8.323,18.544   c0,2.585,0.852,4.642,2.92,5.845c3.269,1.044,4.642-1.549,6.532-2.744l3.094-4.816c3.446-10.494,8.431-21.156,15.142-28.895   c0.48-0.728,1.385-0.78,1.818-1.351c1.786-0.526,3.847-0.9,5.884-0.765c-4.361,5.033-7.396,12.25-10.29,18.796   c-0.17,2.065-2.061,3.447-2.061,5.674c-1.892,2.581-2.235,6.54-4.815,8.255c0.689,1.032-0.17,2.755,1.023,3.613   c0.86,2.061,4.128,1.886,6.54,1.886c4.298-2.223,7.229-4.983,8.936-9.974c2.588-7.734,5.853-15.641,9.978-22.522   c1.382-3.442,3.784-5.154,6.194-7.219c3.269-1.548,6.877-5.162,10.832-2.235c-5.848,6.012-10.661,13.409-14.274,22.351   c-3.093,4.649-3.955,10.666-7.39,14.616c-0.517,1.72,0.683,3.098,1.374,4.301c1.374,1.374,3.435,1.545,5.667,1.374   c2.763,0.171,4.47-1.549,6.718-2.406c7.053-8.088,6.707-20.636,13.401-29.229c2.072-2.585,3.609-5.337,6.369-6.881   c2.577-1.548,5.674-2.922,8.604-3.438c1.882,0.341-0.345,1.374,0.171,2.406c0.512,0,1.374-0.171,1.882,0.174   c-0.171,1.716-1.711,1.716-2.053,3.093c-4.125,4.816-7.75,10.662-9.978,17.368c-1.557,1.724-1.386,4.297-2.41,6.366   c-1.715,2.577-1.715,6.015-3.447,8.421c-0.342,3.78,2.593,5.166,4.646,7.056c4.646,1.02,7.921-1.378,10.844-3.447   c4.296-3.609,4.296-10.315,6.532-15.653c1.37-4.637,3.956-8.934,6.874-12.026c1.727-3.439,5.507-5.337,9.116-6.881   c1.378,0.857-1.041,2.064,0.687,2.577c0.52,2.93,3.784,1.207,5.679,2.061c-3.275,2.759-4.817,6.714-7.577,10.149   c-2.743,5.154-6.178,10.84-6.52,17.535c-0.699,1.553-2.417,2.239-2.068,4.308c1.369,1.378,1.718,3.784,4.121,4.3   c1.382,1.703,4.812,1.37,5.679,3.776c-1.212,0.691-1.041,2.41-1.554,3.613c0.342,4.642-1.023,8.422-0.519,13.072   c-0.334,0.857-1.537,0.857-2.406,1.028c-3.082,0-5.492-1.544-8.418-1.89c-6.881-0.858-13.587-2.406-20.298-3.447   c-5.845-1.537-12.202-2.053-18.225-3.609c-1.715-1.204-5.5,0-5.67-2.578h2.073c1.029-0.504,0.683-1.719,1.37-2.577   c3.097,0.688,4.983-1.548,6.703-2.922c1.207-0.512,1.719-1.203,2.068-2.585c-0.35-2.398-3.105-2.744-4.134-4.634l3.272-3.1   c0.171-2.235,2.061-3.09,2.918-5.329c1.89,0,2.589-1.719,3.276-3.264c0-2.41,1.882-3.955,1.191-6.194   c-1.361-0.521-1.361,0.865-2.22,1.04c-0.528,3.082-3.962,3.776-3.788,7.386c-2.755,0.861-3.101,3.784-5.678,4.296l-0.857,1.374   c-2.923,2.073-7.048,4.301-11.34,2.752c-2.589,3.276-6.885-1.191-9.12,2.414c-2.758,0-3.62,2.065-5.854,3.081   c-2.408-1.703-3.953,1.219-6.359,1.041c-0.173,2.064-2.92,1.893-4.125,3.097c-2.404,1.203-5.165,1.719-8.084,2.061   c-2.236,1.39-5.845,0.862-8.424,0.346c-0.866-1.032,0.681-1.204,1.022-1.719c-0.341-1.37-1.366-1.891-2.406-2.752   c0.689-2.406-1.203-4.809-1.717-7.044C61.794,47.005,59.896,43.912,61.099,40.644z M57.145,83.806   c7.572-1.024,15.307-1.378,23.393-1.203c0.515,0.687,1.717,0.35,2.406,0.35c3.61-1.895,7.39,0.337,10.997-1.204   c0.689,0,1.205,0.508,1.898,0.854c1.711-1.894,1.541-4.816,2.402-7.223c0.341-1.715,0.691-4.642,2.93-4.466   c0,4.125-1.723,7.735-1.723,11.868c0.171,1.707,1.894,1.891,3.439,2.231c4.3-0.341,7.914,1.032,12.381,0.516   c2.755,0.862,6.365-0.17,9.292,0.862c2.743-0.517,4.804,0.857,7.564,0.342c2.568,1.032,5.67,0.516,8.251,1.203   c3.093,1.377,7.055,0.861,10.149,2.061c4.292,0.341,8.418,0.861,12.201,2.756v1.544h-0.346c-0.504,2.406-1.194,4.816-1.023,7.735   c-1.723,1.382-4.987,0.869-7.227,0.342c-2.402,0.869-3.435-1.716-5.849-0.85c-2.398-0.346-4.642-0.687-6.878-1.208   c-2.41,0.342-4.462-0.512-6.54-0.857c-2.568,0.345-4.471-0.346-6.69-0.691c-1.557-0.17-3.105-0.52-4.476-0.862   c-5.333-0.678-10.141-2.064-15.477-2.064c-2.752-1.544-6.715-0.857-8.772-3.26c1.549-3.097-2.239-3.785-2.747-6.02   c-4.983-0.687-9.631,0.171-14.271,0.862c-0.516,0.854-1.377,1.544-2.579,1.716c-2.07,1.198-2.416-2.232-4.307-0.171   c-0.343,1.2-2.062,0.171-2.919,1.029c-2.752,1.032-5.675,1.552-8.94,1.203c-2.242-2.403-5.678-2.403-6.881-5.325   c-0.345-0.345-1.203-0.17-0.859-1.032C55.772,84.151,56.628,83.631,57.145,83.806z M51.647,112.18   c2.404,0.171,3.609-1.204,6.188-0.69l0.687-0.342c7.741-0.171,14.272,1.203,21.672-0.52c3.427,0,6.702,2.064,10.313,0.691   c1.037-1.895,1.037-3.435,1.553-5.674c0.679-2.231,0.335-4.638,1.88-6.532c0.518,0,1.388-0.167,1.388,0.69   c0.339,2.228-0.528,4.126-0.354,6.361c-1.205,0.171-0.345,1.204-0.345,1.891c-0.515,1.37-1.376,3.093-0.689,4.637   c1.388,1.211,4.129,1.041,6.027,1.041c4.979,1.021,10.832,0.171,15.982,1.021c2.935,1.032,6.023-0.334,8.775,1.207   c2.061-0.345,3.618,0.516,5.496,0.858c3.792,0,7.06,1.561,10.84,1.561c3.093,1.541,7.564,0.853,10.836,2.219   c1.548-0.679,1.548,1.041,3.089,0.528c0.35,0.683,1.382,0.342,1.901,1.032c-0.34,2.062-1.21,3.776-0.87,6.02   c-0.682,0-0.17,0.849-0.341,1.195c-0.171,1.033,0.691,1.033,0.341,2.073c-4.121,1.891-8.084-0.87-12.38-0.528   c-1.89-0.512-3.609-0.857-5.495-1.203c-7.06-0.858-13.076-1.708-20.12-2.578c-1.386,0.175-2.244-0.512-3.609,0   c-4.301-0.171-8.597-1.715-12.909-2.065c-1.711-1.541-4.458-2.06-6.875-2.402c-0.342-1.032-1.376-0.513-1.376-1.72   c1.892-0.857,0.172-2.918-0.168-4.133c-1.893-0.516-2.406-2.064-4.644-2.064l-0.504-0.504c-3.8,0.504-8.086-0.517-10.846,1.537   c-2.92-0.504-4.297,1.731-6.53,2.248l-2.236-0.175v-0.171c-1.03,0-2.928-0.171-3.608,1.032c-3.104-0.17-7.914,1.545-9.29-1.374   c-1.546-0.87-0.687-4.133-3.438-3.784C51.303,113.212,51.647,112.521,51.647,112.18z M49.411,139.522   c4.812,0.171,9.282-0.345,13.579,0.516c2.588,0,5.335-0.345,7.572,0.341c4.296-1.886,9.46,0.175,14.099-0.17   c1.033-2.231,1.206-4.995,2.063-7.397c0.517-2.065,0.517-4.296,1.718-6.016l1.55,0.17v3.78h-0.174   c-0.344,3.609-1.726,7.06-2.071,10.84c1.555,1.375,3.799,1.033,5.508,1.033c4.126-0.345,7.568,1.37,11.694,1.028   c2.41,0.854,5.511,0.171,8.25,0.683c2.752,0,6.024,0.691,8.946,1.032c3.264,1.041,7.056,1.041,10.669,1.553   c2.394,1.04,5.154,1.211,7.901,1.715c2.418,0.687,5.337,0.341,7.739,1.028c1.723,0.357,3.613,1.041,4.292,2.248   c-1.02,2.573-1.366,5.67-1.882,8.43c-1.727,1.02-4.296,0.679-6.198,0.504v-0.171c-3.089,0.171-5.674-2.064-9.279-1.374   l-0.525-0.346c-6.003-0.683-11.856-2.056-18.054-2.056c-1.882-0.35-3.951-0.862-6.008-1.208c-5.678,0.687-9.804-3.101-15.826-1.719   c-1.889-0.866-5.157,0.341-6.883-1.545c0.693-3.792-1.368-6.71-4.125-8.604c-0.517-1.029-1.883,0.682-2.228-0.688   c-3.264,1.029-6.365-1.374-9.288,0.346c-4.812,1.886-10.484,2.057-15.648,3.101c-2.579,0.85-2.579-2.077-4.985-1.898   c-0.685-2.235-3.101-2.235-4.124-4.3L49.411,139.522z M142.617,190.248c-4.296,0.171-8.946-1.544-13.254-2.402l-3.606-0.171V187.5   c-6.702-1.032-14.794-1.203-20.81-3.098c-3.951,0.521-7.568-2.061-11.178-1.374c-2.748,2.065-7.046,1.894-8.936,4.646   c-2.062,1.37-4.125,3.264-5.507,6.012c-0.345,0.516,0.343,1.203,0.343,1.719h0.524c0,2.073-0.524,4.812,2.06,5.162l2.58,0.345   v0.175c3.951,0.342,8.936,0.862,12.212,1.891c1.365,0.171,2.747-1.549,3.776,0c2.585-0.346,4.816,0.341,7.397,0.171   c1.377,0.503,3.264,1.032,4.979,0.849c3.439,1.041,6.874,1.041,10.67,1.557l0.345,0.687c2.402,0.516,4.816-0.517,6.87,1.032   c2.755-0.687,4.125,1.029,6.885,0.858c0.854,0.688,3.093,0.688,2.231,2.577c-1.033,0.861-0.517,2.402-1.723,3.093v1.901h-0.155   c0.5,1.883-0.699,3.435-2.934,3.094c-1.716-0.87-3.606,0.858-5.166-0.699c-2.748,0.346-5.316-1.545-8.248-1.021   c-2.581,0-4.467-1.715-7.219-0.695c-0.687-1.541-2.239,0.171-3.442-0.679c-2.922-1.385-6.536,0.342-9.121-1.385l-5.146-0.516   c-1.033-1.199-2.758,0.345-4.307-0.17v-0.171l-2.578-0.171v-0.35c-1.899,0.691-3.438-0.857-5.501-0.679   c-1.21-0.691-3.103-0.521-3.952-1.553c-3.445-0.687-6.196-1.719-9.462-2.922v-1.199h0.172c-0.514-2.589,2.577-2.236,3.266-4.296   c0-1.032-0.689-2.073-0.173-3.105c1.9-0.679-0.17-2.747,1.032-3.951l3.094-1.548c-0.334-1.033-0.858-1.374-1.375-1.716   c-1.197,1.028-2.063,2.231-4.298,2.062c-0.171,0.682-1.203,0.682-1.888,0.341c-0.859,0.341-1.721,0.341-1.892-0.517h1.892   l1.888-0.516c1.72-1.541,3.102-2.573,4.815-4.126c1.89-1.886,3.958-4.292,5.164-7.222c1.366-0.171,1.023-1.895,1.89-2.406v-1.024   h0.172c0.688-2.931,0.86-6.711,1.031-10.149c-0.687-1.036-1.031-2.589-1.203-4.125c-1.213-1.553-2.404-3.618-1.89-5.512   c0-1.199,1.023-2.573,0.677-4.122c0-1.381,1.557-0.516,2.246-1.032c1.03,0.857-0.173,2.064,0.17,3.093   c-1.9,0.862,0.341,2.582,0.341,4.126h0.345c0.346,2.064,1.718,3.447,3.268,4.308c1.372,2.568,3.949,3.947,6.709,5.158   c0.849,0.853,1.882,1.191,2.747,2.061c2.057,1.716,5.329,1.374,8.081,1.716c2.243-0.688,4.296,0,6.369,0.17l0.517,0.517   c2.394-0.858,4.296,0.861,7.044,0.345c3.447,1.378,7.572,1.203,11.356,2.411c4.467-0.171,9.458,0.679,13.413,2.402   c1.033,2.064-1.21,3.101-1.39,5.166C143.467,186.643,146.227,190.589,142.617,190.248z M69.186,172.022c-0.86,0,0,1.544-0.86,1.544   c-0.687,0.517-1.889,0.175-2.062-0.512c-0.685-2.406,1.205-2.926,1.719-4.471c1.374,0.171,1.891-0.687,3.265-0.512   C71.419,169.958,68.84,169.958,69.186,172.022z M73.311,175.632h2.063c0,1.723-0.862,3.443-2.063,4.638   c-1.549,0.175-2.923,3.276-4.471,1.033C71.077,180.099,72.794,178.205,73.311,175.632z M75.028,166.007v-0.857l3.276,0.171   c0.334,1.032,0.171,2.228,0.171,3.264C76.748,168.755,76.067,166.686,75.028,166.007z M74.342,185.094l-2.063-0.171v-0.345   c0.346-1.378,1.546-1.72,3.095-1.549C75.717,184.232,75.028,184.749,74.342,185.094z M43.215,168.072   c3.095-0.524,6.885,1.024,9.29-1.215c4.298-0.85,6.704-4.121,9.806-6.702h0.506c0.518,2.235-2.404,2.926-2.575,5.166   c-1.891,0.687-1.033,3.955-3.097,4.809l-0.171,1.37c-0.516,0.524-1.201,1.557-1.89,2.243c0,0.512,0.173,1.204,0.689,1.374   c-0.689,1.203,0.514,2.752-1.032,3.447c-1.89-1.036-2.578-3.101-4.469-3.792c0-2.919-3.961-2.228-4.812-4.642   c-1.038-0.513-2.585-0.171-2.931-1.545L43.215,168.072z M35.999,196.439c6.529-0.517,14.781-0.862,20.975,1.04   c2.406-0.861,1.548-4.479,1.548-6.71c-1.032-0.179,0-1.724-0.861-1.894l-0.516-3.102c-2.061-0.85-1.544-3.78-3.093-4.983   l0.689-1.375c1.032,0.513,1.203,2.232,2.233,2.927l0.516,3.431c2.063,1.041,1.89,4.134,4.304,4.816   c0,1.724,2.406,1.211,2.923,3.268c-1.555,0.176-3.104,0-3.789,1.549c0.171,2.406-2.922,1.382-2.406,3.78   c-1.894,0.512-3.955,0.691-5.672,1.382c-0.516-0.17-1.547-0.35-1.547,0.345c-1.032,1.549-0.689,3.78-3.093,3.78   c-0.346-1.041-0.346-2.573-1.557-2.744c-1.893-0.691-1.893-2.935-4.126-2.935c-2.406-0.167-4.295-1.374-6.529-1.878V196.439z    M33.249,224.642c1.888-0.691,4.64-0.691,6.703,0c2.75,0,5.507,0.342,8.259,0.695c2.75,0,5.841,1.882,8.417,0   c3.614,0.337,7.229,1.366,11.182,0.679c1.201-2.406,0.691-5.67,2.063-8.088c0-2.224,1.374-4.125,2.063-6.187   c1.546-0.679,0.859,1.199,1.546,1.549v2.756h-0.17c-0.687,3.609-1.203,7.215-2.234,10.657c0.169,1.374,1.031,2.231,2.404,2.414   c4.823,0.342,9.462,1.02,14.265,1.02c12.047,1.378,23.908,2.76,35.431,5.166c3.609-0.341,6.703,0.342,9.292,2.062   c0.346,1.374-1.044,1.374-1.215,2.406c0,2.41-1.89,3.955-1.204,6.707c-2.577,1.898-5.491-0.341-8.592,0.341   c-4.991-1.886-11-1.203-16.335-2.235c-4.813-0.512-9.455-1.544-14.1-2.235c-3.617-0.338-7.056-1.199-10.828-0.854   c-2.414-1.378-5.509-0.687-7.916-2.065c-2.577,0.171-4.124-2.064-7.056-1.203c-0.171-0.862-1.193-1.37-0.852-2.581   c0.852-1.029,1.378-1.886,1.719-3.271c-1.374-1.033-2.233-3.085-4.477-2.915c-2.75,0.853-5.841,0.35-8.763,0.508   c-1.378,0.861-3.609-0.159-5.156,0.861c-1.719,0.687-4.306,0.354-6.025-0.517c-0.685-3.609-5.499-3.264-8.249-4.975   C33.592,225.155,33.076,224.984,33.249,224.642z M131.781,510.087h-0.869c-0.862-4.3,0.512-7.734,0.512-12.201   c1.044,2.736,0.7,4.979,1.044,7.043h0.517C132.468,506.648,134.013,509.912,131.781,510.087z M132.985,416.203   c-2.418-0.17-3.451,2.237-5.853,1.191c-5.499-5.495-14.616-7.729-19.087-13.921c-0.857-2.413-3.776-2.747-3.776-6.015   c-1.902-1.203-2.422-3.443-4.475-4.305v-1.895l2.744,0.18v0.171c9.288,1.544,17.884,5.152,27.171,7.218   C128.859,405.71,134.347,409.665,132.985,416.203z M108.39,426.688l-3.442-0.172l0.345-0.859   C106.317,425.997,108.561,424.964,108.39,426.688z M109.418,356.874h0.353c0.85,2.235,1.712,3.784,3.427,5.154   c0.528,2.935,4.134,3.104,4.309,6.539c-4.309-1.031-5.853-4.982-9.117-7.226c-0.17-1.883-1.902-2.744-2.073-4.297   c-2.049-3.264-2.91-7.557-2.398-12.551c1.549-0.691,1.549,0.87,1.549,1.711c-0.175,1.553,0.35,2.414,1.02,3.105   C106.167,353.094,108.903,353.781,109.418,356.874z M104.269,338.82c-1.382,0.516-1.032-1.211-1.382-1.894   c0.521-5.496-1.545-12.381,1.719-16.674h1.382C105.123,326.093,105.123,332.804,104.269,338.82z M39.605,253.529   c1.72,0.346,3.439,0.691,5.156,1.195c2.587-0.849,4.821,1.561,6.886-0.503c3.609,0,9.627,3.946,11.343-1.033v-0.691h0.172   c-0.346-2.585,0.522-5.154,0.868-7.743c0.687-1.374,2.061-2.919,1.889-4.983c1.031-0.342,1.376,0.691,1.891,1.378   c0.346,3.093-0.695,6.365-0.86,9.625c-0.514,0.87-0.687,2.069-0.859,3.271c0.516,1.378-1.039,1.89-0.171,3.09   c4.643,2.585,11.687,0.35,16.853,1.894c6.529,0.691,12.203,1.894,18.733,2.24c0.862,1.37,2.243-0.346,3.101,0.861   c3.784-0.171,6.528,2.057,10.662,1.199c0.854,0.683,1.894,0.512,3.097,0.512c2.057,1.203,5.678,0.52,6.361,3.264   c-1.89,2.244-1.719,5.682-1.719,8.779c-3.097,0.184-7.056,0.858-9.451-0.691c-2.755,0.691-4.995-0.857-7.917-0.341   c-1.544-0.516-3.446-0.687-5.158-0.516c-6.021-0.516-12.218-1.386-17.709-2.577c-1.719,0.857-2.921-1.028-4.64-0.171   c-0.697-1.548-2.244,0.342-3.103-0.857c-4.81-0.691-10.147-1.56-13.415-4.125c-0.857,0.17-2.061,0-1.717-1.033   c1.378-1.731,0.181-3.963,0.181-5.853c-4.993-2.585-11.525-1.724-17.032-1.375c-2.061,0.683-2.577,2.923-5.5,2.061   c-0.861-2.061-4.296-1.207-4.296-4.122c-0.859-1.207-2.577-1.377-3.103-3.097C33.42,252.326,36.169,254.045,39.605,253.529z    M25.17,319.729c0.171-2.745-1.038-4.812-0.523-7.91h0.18c0.171-2.748,0.514-6.183-0.18-8.596c1.546-0.683,1.546,0.861,1.546,1.894   c-0.343,1.545,0.866,1.89,0.695,3.447h0.345c0.677,2.057,0.516,4.296,2.407,5.321c-0.346,0.857,0.343,1.374,0.163,2.239   c-1.376,0-1.376,1.374-1.892,2.065c0.345,1.366-0.506,1.89-0.852,2.751h-1.553C25.341,320.594,25.677,319.899,25.17,319.729z    M32.389,348.099c-0.86,0.175-1.375,0.7-2.406,0.521c0-1.894-1.728-2.236-1.728-3.955c-2.579-2.406-1.717-7.219-2.406-11.011   c2.236-1.021,1.384,2.072,2.933,2.072c0.339,1.2,0.857,2.752,1.889,3.264c-0.869,2.752,2.234,3.438,0.515,5.845   C30.843,346.555,33.076,346.383,32.389,348.099z M60.928,363.243c-2.922,0-2.577-3.442-5.156-4.304   c-0.861,1.031,0.514,1.887,0.342,3.265c-1.718,0.515-2.577-1.721-3.78-2.745c-2.751-4.13-5.851-8.258-4.812-14.624   c1.539,1.891,4.467,2.062,5.499,3.964c0.175,0.17,0.517,0.17,0.689,0.17c2.405,3.955,3.61,8.596,6.532,11.689   C60.242,361.857,61.274,362.028,60.928,363.243z M79.851,363.073l-1.375-1.387c-1.041,1.728,1.546,4.639-1.384,4.639   c-4.126-4.297-7.906-8.589-7.561-16.153c2.92-0.861,4.294,6.012,6.187,1.537v-1.537c1.546-0.512,1.717,0.857,2.063,1.537   c0,2.072,1.546,3.105,1.89,5.165c0.697,0.513,1.039,1.724,1.545,2.585c0.869,1.367,0.699,3.086,2.235,3.955l0.171,1.369   C82.43,364.093,79.152,365.982,79.851,363.073z M92.74,470.71c-4.126,0.85-5.156-2.93-8.773-3.779   c-1.712-1.719-5.492-1.205-6.532-3.79c-0.343-2.579-2.061-4.982-0.859-7.567c2.063,1.724,4.983-1.54,6.196,1.382   c3.782-1.206,5.491,3.264,9.117,1.716C92.396,462.797,95.146,466.931,92.74,470.71z M95.146,327.984   c-0.171,0.345-0.687,0-1.031,0.17v-2.061c0.173,0,0.515,0,0.685,0C95.497,326.264,94.975,327.297,95.146,327.984z M94.975,302.709   c-1.548,0.513-2.741,1.204-3.43,2.577c-0.866,1.549,1.023,4.301-1.037,5.162c0.171,1.199,1.726,1.029,2.746,1.029   c-0.514,2.406,1.892,2.577,1.376,4.987c0.17,1.032,0.699,2.065,0.699,3.435l-0.528,1.041c-0.685-3.105-2.74-4.475-3.255-6.369   c-2.072-2.057-4.648-3.093-7.064-4.297c-0.514,0.687-1.88,0.175-2.742,0.346l-2.928,1.723l-0.679,0.171l-0.526,0.85l-0.857,2.065   v17.03h-0.336c-0.524,1.894,0.336,4.646-0.868,6.02c-0.687,0.342-1.032-0.698-1.202-1.552c-1.202-4.987,0-12.031-1.031-17.372   c-0.517-1.195-1.375-0.504-2.406-0.679c0.172-1.548-1.032-1.719-1.719-2.41h-0.86c0.175-0.691-0.343-1.723,0.515-1.894   c1.032-0.516,0.69,1.203,1.721,0.516l2.404-2.057l0.516-0.516c0.515-0.353,0-1.723,1.204-1.211l1.032-1.544   c0.17-0.342,0-0.862,0-1.195c1.201-0.354,1.201,0.679,2.414,0.679c1.021,0,1.366-1.033,1.719-1.549   c-0.353-1.715-2.416-1.715-2.759-3.438c-1.024-1.032-2.92-0.512-3.437-2.064c-1.546-2.581-4.985-3.26-6.54-5.845   c-1.366-0.687-4.125,0.683-4.469-1.204c-2.062,0-0.506-2.41-2.062-2.751c0-2.061-2.062-2.232-3.094-3.264   c-1.717-0.171-2.579-1.902-4.81-1.204v-0.174c-1.9,0-2.923-1.041-4.986-0.696v-0.17l-4.479-0.174v-0.164l-4.125-0.341v-0.171   l-3.778-0.175v-0.171c-3.103-0.341-6.19,0-7.743-2.243c-1.376-0.517-2.571-0.862-3.782-1.367c-0.17-0.349-0.516-0.524-0.341-1.036   c3.614-1.195,5.507,1.37,8.944,1.036c0,0.679,0.687,0.333,1.031,0.504c2.407,0.345,4.812,0.862,7.047,1.211v0.174   c3.617,1.89,7.914-1.041,11.35,0.858c2.063,0.691,4.469,0.861,5.843-0.858c0.69-1.211,0.175-3.438,0.346-5.162   c0.345,0,0.516-0.349,0.516-0.52c-0.345-3.094,2.406-4.638,0.687-7.728c0.515-1.389,2.585-0.861,2.931,0.171v3.605h-0.173   l-0.173,4.122h-0.181c0.181,3.097-0.857,5.686-3.091,7.06c0,1.366,1.202,2.232,2.234,2.748h5.163v0.342l4.986,0.174v0.175   c4.812-0.52,7.906,1.544,12.545,1.374v0.341l4.296,0.171c0.868,0.35,1.555,0.857,2.933,0.857h1.209   c0.852,0.349,1.538,0.862,2.912,0.691h1.9c-0.171,0.512,0.346,0.512,0.679,0.512c3.617,0.69,6.714,1.895,10.665,2.065v0.174   l6.19,0.171c0.862,0.346,1.716,1.033,2.749,1.033c4.129,1.541-1.033,4.296-0.516,7.227c-0.862,0.862-1.021,2.235-1.541,3.264   c-1.028,1.028-1.199,2.581-2.581,2.923c-2.574,1.032-2.057-1.549-3.097-2.236c0.694-4.471-0.858-7.389-3.61-9.454   C101.505,298.93,97.721,300.133,94.975,302.709z M90.162,533.476v0.175c4.812,0.172,8.079,1.886,12.375,2.747   c1.731,0.171,2.756,1.202,4.65,1.202c0.857,0.351,1.544,1.03,2.584,1.03c3.614,0.86,6.524,2.238,10.138,3.097   c0,0.686,0.683,0.344,1.032,0.344c1.032,0.688,2.927,0.172,3.101,1.721v1.543h-0.174c-1.033,3.795-0.691,9.118-0.171,12.902h-0.17   l-0.52,28.89c-1.204-0.346-0.171,2.232-1.548,1.03c-1.549-2.749,0.175-7.397-1.549-9.796c0-0.525,0.163-1.211-0.171-1.553   c-0.854-1.895,0.854-6.356-1.374-7.401c-0.512-1.716,1.028-1.716,0.691-3.426h0.337c0.346-3.277,0.175-6.713-1.541-8.773   c0.512-1.893-1.385-2.063-2.073-3.098c-1.024-0.515-2.394-0.69-3.264-1.545v-1.031c2.752-1.202,4.646,3.089,6.023-0.519   c-0.858-2.408,1.028-5.681-1.731-6.874h-1.029v-0.171c-2.922,0.333-4.296-1.382-6.531-1.899v-0.17   c-3.082-0.516-5.329-1.549-8.077-2.239c-1.89,0.521-1.89-1.031-3.45-0.856c-0.674-0.346-1.02-1.205-2.053-0.854   c-1.038-0.351-2.069-0.862-2.928-1.216c-0.344,0.523-1.022,0.354-1.717,0.354c0.341-1.552-0.86-1.723-1.549-2.406   c-0.688,0.334-0.688-0.356-0.859-0.689C88.614,533.305,89.646,533.476,90.162,533.476z M109.418,554.452h0.353   c0,1.204,0.171,2.065-0.694,2.578c-1.548,0.86-2.406-0.513-2.76-1.716v-2.75c1.211-0.344,2.243,0.509,2.931,1.03   C109.248,553.937,109.077,554.28,109.418,554.452z M85.867,623.403c2.918-1.202,5.156,3.269,7.732,0.171   c1.201-0.342,2.069,0.689,2.24,1.724c0.52,1.374-1.209,2.238,0,3.435c0.862,0,1.711,1.214,2.573,0.174   c-0.17-0.344,0.342-0.687,0.699-0.687h1.029v1.549c2.748,1.382,5.849,2.067,8.251,3.783c1.552-0.171,2.573,1.553,4.296,1.378   c2.581-6.197,0.17-14.444,2.068-20.985c1.712-1.024,2.926,0.87,4.638,0l2.065-4.982c0.857-0.347,1.036,0.517,1.548,0.858   c0,1.385-1.719,3.271-0.171,4.642c1.552,2.248-2.244,3.264,0,5.507c1.207,2.065-1.548,3.784,0,5.672l0.171,2.579   c-0.512,0.87-0.862,2.58-0.171,3.616c1.207,2.229-2.073,3.952,0,6.187c0.512,1.549-1.723,3.952,0,5.842   c0.512,1.56,0,2.927-1.033,4.134c-1.56,0.338-2.581-2.574-4.122-0.684c-1.902,1.886-3.613-0.865-6.027,0.171   c-0.854-3.446-6.016-1.387-7.561-4.479c-0.857-0.171-1.902,0-2.752,0v-1.031c0.85-0.167,2.577-0.684,2.752,0.86   c2.748-1.715,2.918,2.589,5.325,0.87c0.87-1.897,3.268-2.758,2.752-5.683c-0.687-2.918-4.642-1.715-6.532-3.446   c-4.296,1.731-5.329-5.315-8.592-0.85l-1.378,1.721c0-1.554-1.553-1.554-2.583-2.408c-2.238-3.271-2.578-7.741-7.219-8.434V623.403   z M122.145,660.549l0.35,2.403h-0.35c-1.032,2.763,1.552,5.166-0.512,7.06c0.17,1.37,1.203,2.401,0.861,4.121h-0.35   c-0.171,1.202-0.171,2.578,0,3.785l0.35,2.067h-0.35c-0.857,1.716,0.862,2.576,0.35,4.471c-3.272,0.851-4.3-1.202-6.715-1.559   c0-0.336-0.333-0.504-0.512-0.504c-8.78-4.299-18.738-6.366-27.521-11.699c2.246-0.683,3.618,2.236,6.024,0.521   c1.205-0.17,1.559,0.856,2.931,0.856c0.346,0.684,1.02,0.513,1.541,0.859c2.41-0.347,2.581,2.234,4.995,2.062v0.172   c2.581-0.516,2.751,1.89,5.154,1.546c0.341,0.856,1.723,0,2.068,0.686c1.537,1.032,3.439,1.202,4.987,2.589   c0.504,0.509,1.191,0,1.362-0.694c-0.171-1.373-2.224-1.373-1.362-3.438c1.021,0.175,1.362-0.342,1.886-1.028   c-0.349-1.377-1.036-1.548-1.886-2.24c-2.589,0.692-3.45-1.725-5.849-0.86c-0.52-2.916,2.918-2.752,3.26-4.988   c1.377-0.508,1.377-2.229,1.377-3.783c1.033-0.688-0.337-1.375-0.508-2.231c0-1.203-1.902-0.859-1.211-2.581   c2.239-0.863-0.17-2.062-0.17-3.604c2.069-0.347,4.122,3.434,5.336,0c-0.349-1.035-0.873-1.733-0.698-3.094   c1.902-0.346,2.073,2.229,3.958,1.189c1.374,0.525,1.723,2.76,2.065,3.963C122.315,657.457,121.633,659.001,122.145,660.549z    M102.021,654.696c-1.541-0.679-3.089,1.897-3.268-0.508c0.865-0.518,0.865-1.558,1.386-2.236h2.398   C102.367,652.802,103.058,654.535,102.021,654.696z M103.919,656.427c0.517-0.69,2.069-0.349,3.268-0.349   c0.687,0.687,2.755,0,2.061,2.062c-0.688,1.378-3.26,0.52-4.979,0.69C104.094,657.969,103.748,657.457,103.919,656.427z    M180.609,556.518c0.861,1.031,1.031,2.573,1.378,3.953c0.175,2.411,1.374,3.444,2.923,4.812c2.234,2.07-0.863,4.123-0.346,6.541   c2.41,1.026-0.518,2.573,1.548,4.122c0.688,0.699,0.688,2.414-0.345,2.751c-0.346,3.788-5.158,1.203-7.39,2.243   c0.345,0.851-0.688,0.504-0.866,1.203c0,0.858-1.032,1.538,0,2.232c-1.203,1.202,0.691,2.234-0.857,3.254   c-0.857,1.899,1.724,2.419,1.724,3.624c2.231,0.169,0.69,3.264,1.378,4.638h0.683c2.581,2.76,4.126-1.374,6.015-2.066   c2.232-1.202,1.204-5.154,3.785-6.357c1.032,3.615,0,8.082,0.857,11.522c-0.517,0.511-0.346,2.065-1.549,1.549   c-2.922-0.527,0.17-2.934-0.512-4.304h-1.549c-0.861,0.862-1.545,1.717-1.719,3.102c1.207,2.057-0.688,3.776,0,6.189   c-1.379,0-0.346,1.716-1.721,1.716c-0.686,1.373,1.375,1.029,0.863,2.07c1.543,0.166,1.373,2.229,1.031,3.43   c-1.723,0.349-1.031,2.585-1.377,4.138c1.719,1.027,1.719,3.605,1.548,5.84c-1.378,0.854-0.521,2.921-1.378,4.127   c2.582,1.198,1.549,4.134,3.443,5.665c0.857,0.698,1.889,2.245,0.857,3.454c-2.582,1.713-0.35,4.811-0.35,7.216   c0.536,1.715,2.41,0.523,3.268,1.544c0.346,1.202-0.341,1.724-1.031,2.589c-2.744-0.356-0.684,2.916-1.887,3.952   c1.373,4.124-1.028,8.425,0.682,12.385c0.691,0.855,1.033,1.889,2.065,2.405c0.69,0.503,0.69,1.719-0.17,2.062   c0.86,2.404,2.401,4.466,2.747,7.217c-1.012,2.062,0.342,4.127,0.517,6.188c1.203,4.306-0.347,8.6-1.874,12.212   c-2.08,2.241-4.486,4.133-7.061,6.023c-0.35,2.749-5.162,0.346-4.642,3.785c-3.097,1.373-5.849,4.291-7.909,6.527   c-2.589,0-3.439,2.585-6.199,2.232c-1.536,1.901-4.467-0.17-6.007,1.723c-2.414,1.211-3.613,4.133-6.369,4.475   c-1.032,2.231-4.292,2.066-5.853,3.952c-2.736-0.861-3.264,2.234-5.496,2.234c-2.882,1.005-5.277,2.621-7.605,4.332l-29.254-9.837   c-0.041-0.055-0.084-0.107-0.12-0.165c-1.711-0.346-2.569-2.58-3.251-3.78c-1.895-0.861-3.789-1.56-4.995-3.275   c-2.913-1.891-5.845-4.127-9.111-5.847c-0.991-2.131-4.637-1.922-4.81-4.753l1.252-5.566h1.151   c1.718,1.374,4.299,0.859,6.189,2.072c5.158,0.859,9.625,3.611,14.616,4.984c6.027,1.719,11.181,6.702,18.229,4.982   c3.443,0,4.634-2.918,7.228-4.12c3.093-3.785,6.528-6.707,9.803-10.15c0.171-0.349-0.171-0.69,0.346-0.86   c3.093-2.403,5.492-6.533,8.422-9.293c1.541-1.54,2.748-3.426,4.462-4.641c2.752-3.436,6.361-5.494,8.776-9.799V616.88   c-0.869-5.507-0.171-11.528-0.688-17.026c-1.552-22.358-1.382-45.401-1.728-68.094c-0.17-1.549-1.536-1.903-2.406-3.105   c-3.784,0.346-4.125-3.779-8.246-2.918c-2.248-0.692-4.987-0.171-7.401-0.346c-1.708-0.856-3.951,0.175-5.662-0.856   c-3.971,0.51-7.41-0.864-11.531-0.351c-2.227-1.54-1.032-5.508-1.032-8.076h0.171v-3.102c1.032-0.511,1.902-1.033,3.093-0.847   c2.243-1.218,3.962,1.2,6.195,0.847c5.844,1.377,12.551,0.688,18.225,2.247c2.064,0.513,4.472,0.854,5.504,2.568   c4.296,0.689,4.129,6.191,8.075,7.223c1.212,4.475,5.683,6.37,5.683,11.69c3.264,4.476,3.435,10.148,5.678,15.141   C181.3,552.395,179.068,555.314,180.609,556.518z M151.381,491.512c2.402-0.341,3.093,1.902,5.167,2.241v0.511   c-1.561,0-4.134,0.869-4.992-0.68L151.381,491.512z M248.016,117.517c-3.264-0.171,0,3.951-2.748,4.292   c1.719,1.895-0.175,5.158,1.549,7.049c-0.861,2.41,0.512,4.296,0,7.055c-0.52,2.236-1.374,4.812-2.926,6.199   c-2.232,3.601-5.154,7.036-5.667,11.682c2.216,2.751,0.854,7.223,1.204,11.011c-1.033,1.712-1.383,3.268-2.062,5.325   c-1.738,0.52-1.738,3.097-4.129,3.097c-1.394,0.516-1.394,2.406-1.215,3.951c1.557,2.239-1.703,5.515,1.215,7.226   c-0.361,1.895,2.391,3.272,0.861,5.321c0.859,4.309-2.767,6.54-2.922,10.324c-1.549,0.696-0.516,2.931-0.857,4.304   c1.354,4.122,0.857,9.621,0.512,14.093c0.672,0.353,0.159,1.211,0.346,2.072c-1.378,1.891-0.187,5.67-2.941,6.362   c-0.684,0.512-0.342,1.541-0.342,2.239c0.17,0.342,0.512,0.342,0.857,0.342c-0.688,1.882-4.297,3.609-1.715,6.015   c-3.785,1.553,2.06,3.614-1.188,5.158c0.516,3.78-1.053,6.881-0.533,10.84h-1.032c-0.69,2.748,0.171,7.044-3.093,7.905   c-1.895,1.375-1.203,4.463-0.69,6.536c-0.683,0.346-1.89,1.191-1.029,2.402c1.029,0.167,0.347,1.382,0.517,2.065   c-1.203,1.719,0.688,3.093,0,4.987c-1.377,2.057,0.861,6.71-2.918,7.215c0.17,1.041-2.411,2.418-0.346,3.105   c0.172,2.406-2.752,1.891-2.923,4.3c0,1.033-0.17,2.231-1.199,2.744c-0.349,2.236,2.057,2.752,1.199,5.336   c-0.349,2.574,0.513,4.812,0.857,7.219c-1.886-0.341-2.057,1.72-2.405,2.923v2.064c-1.032,0.687-1.545,2.069-2.576,3.089   c-0.862,0.521-0.862,1.894-0.862,3.101c-1.2,0.175-2.749,0.52-3.261,1.724v1.033c-0.521,0.508-1.398,0.159-2.084,0.333   c-0.33-1.024-1.7-0.85-2.217-1.024c-0.877,1.723-4.827,1.549-3.949,4.812c-0.708,0.521-2.252,0-2.082,1.203   c0,0.861,2.082,1.89,0.514,2.752c-0.858,0.341-1.875,0.687-1.721,1.89c0.176,0.69-0.324,1.724,0.688,1.898h1.033   c-0.172,0.517,0,1.025,0.52,1.195c1.73-0.17,3.951-0.17,3.264,2.244c1.564,0,1.39,2.402,3.113,1.203   c0.337-0.683,0.838-1.203,1.891-1.032l0.17,2.914c-1.895,0.524-6.19-1.366-6.873,1.728c0,0.687-0.342,1.715,0.337,2.231   c0.346,3.097-0.337,5.674-1.028,8.435c-3.113-1.383-2.076,2.746-5.174,1.199c-0.512,0.337-0.341,0.85-0.341,1.197   c0.687,1.041,2.747-0.348,3.264,1.383c0.858,0.171,2.942-0.857,2.601,1.033c1.18,0.34,0.508,1.889,0.679,2.75   c-1.028,1.895-3.279,0.854-4.983,1.033c-0.527-0.35-1.043-1.724-1.901-0.691c-1.554,0.342-1.032-1.723-2.585-1.373   c-1.028,0.854-1.199,2.926-3.094,2.064c-0.341-0.691-0.17-1.724-1.027-2.064c-3.094,1.715-1.375-2.923-4.301-1.549   c-0.508-0.688-0.683-1.203-1.541-1.203c-0.69,0.516-0.17,1.548-0.345,2.402c0.69,0.35,0.175,1.203,0.345,1.895   c-0.69,1.031-3.271,0.17-2.585,2.234c-1.02,0-1.54,0.514-1.54,1.374c0,0.687-0.179,1.387,0.689,1.557   c1.367-0.524,1.192,0.688,1.883,1.366v2.058c-2.751,1.043-5.154-1.025-7.738,0.186c-1.028,0-2.24,0.342-3.101-0.357   c-1.883,0.869-2.748,2.935-5.317,2.072c-1.901-0.17-3.101-3.784-4.996-1.203c-1.544,0.691-1.544-1.21-2.922-0.869   c-2.061-2.91-7.044-0.854-9.288-3.95c-1.536-2.062-5.487-1.545-6.698-4.297c-2.418,0.35-1.723-2.577-3.954-2.406   c-1.032-2.576-3.956-3.962-2.244-7.223c-0.521-6.19,0.869-11.515,0.341-17.535l0.528-0.694c0.342-7.39-1.04-13.926-0.528-21.148   c-0.862-0.679,0.17-2.065-0.862-2.752c0.35-2.236-0.857-5.508,1.032-6.881c2.923,0,5.857,0.171,8.605,0.524   c3.105,1.024,6.881,1.024,9.974,2.406c10.669,3.268,21.669,5.324,32.501,7.909c2.576,1.029,5.674,1.029,8.246,2.411   c2.422,0.17,4.642,1.195,7.234,1.544c2.923-0.691,4.983,2.236,7.219-0.52c3.264-2.406,4.473-7.394,4.473-12.214   c-1.209-8.077-11.521-6.357-17.547-9.279c-17.186-5.167-35.085-8.946-52.962-12.544c-2.228-1.041-5.496-1.731-4.129-5.34   c0.87-1.375-0.175-3.435,0.87-4.809c0-0.528-0.52-1.723,0.512-1.723c2.922-0.512,4.812,0.853,7.735,0.341   c2.756,1.211,6.369,0.854,9.291,2.065c14.616,4.471,29.916,7.393,44.373,12.718c3.434,1.044,6.873,2.418,10.479,2.934   c3.613-1.89,6.36-6.016,6.36-10.84c-0.175-3.264-1.027-6.877-3.78-8.088c-12.221-3.093-23.902-7.214-36.279-9.97   c-2.24-1.371-5.508-0.679-7.748-2.057c-5.665-0.354-10.481-2.406-15.985-3.093c-3.093-1.382-7.568-1.04-9.632-3.609   c0.17-3.272-1.549-5.507-0.857-8.775c2.584-1.032,6.023-0.341,9.104-0.512c1.902,0.512,4.304,0.341,6.027,1.544   c4.637,0.516,8.942,2.236,13.583,3.268c11.689,3.443,23.725,6.357,35.252,10.32c4.125,0.163,9.458,5.328,12.553,0.503   c1.715-2.397,3.092-5.487,3.092-8.938c-0.861-2.577-1.203-6.873-4.471-7.219c-4.467-1.032-8.76-2.744-13.23-3.605   c-2.426-0.861-4.809-1.894-7.409-2.065c-2.062-1.381-4.81-0.865-6.869-2.068c-9.284-2.923-19.258-4.471-28.895-6.707   c-2.225-0.512-4.639-0.512-6.537-1.544c-2.915-0.517-5.836-1.545-8.08-3.093c-0.512-3.272,0.861-5.682,0.861-8.604   c2.073-0.512,4.992-0.512,7.219,0c3.972,0.182,7.397,1.552,11.349,1.723c1.901,1.37,4.479,0.687,6.368,2.061   c2.752,1.04,6.016,1.211,8.604,2.415c2.915,0.17,5.149,1.366,7.728,2.061c3.441,0.687,6.723,1.894,10.16,2.922   c7.025,2.061,14.092,4.296,21.307,6.187c3.63-1.028,6.19-3.605,6.879-7.561c0.531-3.271-0.347-7.576-2.748-9.45   c-9.451-3.451-19.426-5.853-29.221-8.775c-9.982-2.764-19.957-5.154-30.105-7.401c-4.126-1.891-9.113-1.891-12.548-4.812   c-0.171-2.064,0.345-4.475-0.517-6.369c-0.524-1.886,0.691-2.402,2.065-2.577c3.089,1.04,7.215-0.512,10.14,1.211   c2.069-0.349,3.618,0.516,5.325,0.858c8.946,2.402,17.718,4.983,26.497,7.738c3.268,1.033,6.877,1.374,9.779,2.923   c2.426-0.176,4.129,1.718,6.548,1.718c0.69,0.171,1.382,1.037,2.414,0.688c4.122,1.715,8.417,3.608,13.247,3.089   c3.077-2.22,5.142-6.691,4.982-11.682c-1.203-2.922-2.08-5.503-5.516-6.198c-8.42-1.89-16.501-4.642-24.748-7.048   c-1.568-1.374-3.781-0.687-5.346-2.057c-3.438-0.861-6.705-1.553-10.141-2.414c-2.576-0.854-4.98-1.886-7.738-2.057   c-2.398-1.386-5.326-0.866-7.732-2.065c-1.377,0.345-2.247-0.857-3.612-0.524c-3.442-1.549-8.255-1.549-10.32-4.812   c0-0.687-0.171-1.544,0.341-1.894c0.529-2.232-1.032-4.467,0.171-6.016c5.344-0.174,10.492-0.174,14.955,1.72   c3.275,0.174,6.026,1.207,8.787,2.415c2.573-0.179,4.116,1.711,6.694,1.711c3.092,1.548,6.723,1.548,9.8,3.268   c5.86,1.032,11.019,3.609,16.515,4.983c5.328,1.557,10.652,3.272,15.985,4.825c3.608-0.183,4.483-3.097,6.377-5.674   c1.354-3.442,1.013-8.43-1.033-11.178c-6.718-2.577-13.595-4.471-20.469-6.54c-12.372-3.609-24.578-7.91-37.32-10.828   c-2.748,0.175-4.808-1.719-7.561-1.549c-2.409-1.04-5.853-1.556-6.71-4.467c0.857-1.73,0.17-4.133,0.857-5.853   c-0.688-0.521-0.342-1.374-0.342-1.89c2.069-1.719,4.125,0.517,6.535-0.171c2.756,1.37,6.369,0.338,8.943,2.402   c2.756,0.521,5.67,1.032,8.422,2.073c6.547,2.398,13.58,3.61,19.956,6.524c4.987,0.866,9.28,3.447,14.267,4.13l11.516,4.129   c1.561,0,2.764,0.857,4.121,0.341c3.455-2.751,5.861-7.389,5.35-12.726c-0.517-2.398-2.064-3.951-3.61-5.333   c-21.329-7.214-43.003-13.583-65.003-19.079c-2.229-1.207-6.54-1.553-4.817-5.678c0.346-1.894,1.206-3.442,0.856-5.507   c1.732-1.37,3.614,0.353,5.858-0.171c4.292,1.548,9.271,1.374,13.397,3.438c8.961,2.931,18.065,5.507,27,8.43   c3.094,0.345,5.332,2.577,8.598,2.577c4.637,2.235,9.639,3.608,14.452,5.336c1.374,0.509,3.78,0.679,4.983-0.17   c2.406-2.589,4.125-6.194,4.467-10.149c-1.199-2.923-1.369-7.044-5.5-7.397c-13.059-4.122-26.311-8.247-39.377-12.38   c-8.263-3.085-17.371-4.126-25.627-7.04c-2.914-0.87-1.203-4.479-1.715-6.714c1.373-1.891,0.857-4.476,2.064-6.366   c1.549-4.467,1.895-9.454,4.643-13.405c0.344-1.719,0.857-3.447,1.199-5.166c-1.199-2.232,0.344-4.297,0.17-6.532l3.955-6.02   c2.751-2.231,6.361-3.955,10.327-4.988c4.13-0.687,6.187,2.244,9.612,2.927c2.594,2.232,6.545,0.85,9.812,1.207   c0.858-0.357,1.715-1.032,2.919-0.869c0.69,0.512,1.724,0.699,2.234,1.544c1.72,0.691,4.302,0.691,5.159,2.93   c-0.172,2.585-2.391,4.129-3.269,6.361c-0.342,1.72,0.171,2.919,1.397,3.609c0.668,0.342,2.213-0.512,2.213,0.691   c0,1.028-1.871,1.374-1.199,2.756c2.592,1.028,0.17,4.987,2.06,6.523c-0.345,2.244,2.407,3.105,0.874,5.336   c-0.512,2.073,2.564,1.029,1.874,3.093c1.032,1.029,1.735,3.271,3.459,3.617c0.671,1.541-0.175,2.749-0.175,4.296   c-0.688,2.236,2.406,4.812,0.175,7.223c-0.345,2.41,1.354,4.122,1.013,6.535c1.219,2.224,4.657,0.517,5.52,2.922   c1.715,1.371,3.434,2.403,4.982,3.956c0.17,3.259,4.126,2.755,3.609,6.361c0.687,0.52,1.033,1.723,1.203,2.747   C252.316,107.368,250.426,112.692,248.016,117.517z"/>
</g>
<metadata><rdf:RDF><cc:Work><dc:format>image/svg+xml</dc:format><dc:type rdf:resource="http://purl.org/dc/dcmitype/StillImage"/><cc:license rdf:resource="http://creativecommons.org/licenses/publicdomain/"/><dc:publisher><cc:Agent rdf:about="http://openclipart.org/"><dc:title>Open Clip Art Library</dc:title></cc:Agent></dc:publisher><dc:title>Microphone</dc:title><dc:date>2012-02-28T09:49:59</dc:date><dc:description>Antique Microphone</dc:description><dc:source>http://openclipart.org/detail/168607/microphone-by-tawm1972</dc:source><dc:creator><cc:Agent><dc:title>tawm1972</dc:title></cc:Agent></dc:creator><dc:subject><rdf:Bag><rdf:li>Antique Microphone</rdf:li><rdf:li>Mic</rdf:li><rdf:li>Microphone</rdf:li><rdf:li>Vintage Microphone</rdf:li><rdf:li>clip art</rdf:li><rdf:li>clipart</rdf:li></rdf:Bag></dc:subject></cc:Work><cc:License rdf:about="http://creativecommons.org/licenses/publicdomain/"><cc:permits rdf:resource="http://creativecommons.org/ns#Reproduction"/><cc:permits rdf:resource="http://creativecommons.org/ns#Distribution"/><cc:permits rdf:resource="http://creativecommons.org/ns#DerivativeWorks"/></cc:License></rdf:RDF></metadata></svg>
